<?xml version="1.0" encoding="UTF-8"?>
<svg id="svg1310" xmlns="http://www.w3.org/2000/svg" viewBox="0 0 633.27 317.31">
  <defs>
    <linearGradient id="grad" x1="0%" y1="0%" x2="100%" y2="0%">
      <stop offset="0%" stop-color="#000C36" />
      <stop offset="50%" stop-color="#000C36" />
      <stop offset="50%" stop-color="#DB0A40" />
      <stop offset="100%" stop-color="#DB0A40" />
    </linearGradient>
    <style>
      .cls-1 {
        fill: url(#grad);
        stroke: #000C36;
        stroke-miterlimit: 1.09;
        stroke-width: .27px;
      }
    </style>
  </defs>
  <g id="g30">
    <path id="path1" class="cls-1" d="m169.38,315.49c-1.57-.03-4.59-.19-6.73-.38-3.56-.3-3.88-.38-3.99-.9-.3-1.55-.71-7.06-.54-8.09l.14-1.17-2.55-1.19c-1.41-.65-2.85-1.44-3.2-1.76-.81-.79-2.12-1.63-2.23-1.49-.08.05-.92,1.55-1.93,3.28-1.28,2.28-1.95,3.23-2.39,3.34-.71.14-10.45.46-14.52.49-2.01,0-2.88-.08-3.04-.33-.11-.19-.27-.98-.38-1.76-.08-.76-.35-1.95-.57-2.61-.22-.68-.71-2.93-1.09-5.02-1.55-8.93-1.82-10.4-2.58-13.35-.46-1.71-.81-3.34-.81-3.64,0-.43-.19-.52-1.47-.52-1.17,0-1.52.11-1.63.49-.08.24-.46,2.47-.84,4.94s-1.14,6.32-1.68,8.55l-1,4.07-2.55,3.8c-1.41,2.09-2.71,4.13-2.93,4.53l-.38.73-9.5-.14c-7.87-.08-9.69-.19-10.59-.54l-1.09-.43v-2.74c0-2.63.3-4.97,1.79-13.6.35-2.09.6-3.83.57-3.88-.05-.03-.79,1.3-1.63,2.99-3.58,7.17-7.55,11.24-14.58,14.93-3.53,1.87-7.08,3.07-10.29,3.47-3.61.46-9.12-.03-12.51-1.14-3.04-.98-8.44-3.47-9.77-4.56-.52-.41-1.3-.95-1.76-1.19-1.9-.98-8.33-8.22-9.85-11.07-.68-1.3-.81-3.53-.22-4.02.19-.16.62-1.03.95-1.93.62-1.68,1.76-3.85,3.26-6.13,1.28-1.93,4.29-4.02,12.05-8.36,4.34-2.42,5.32-2.61,6.05-1.17.68,1.3,4.04,5.46,5.46,6.7,2.58,2.25,6.6,3.58,8.03,2.63.79-.52,1.55-2.74,1.55-4.53,0-3.58-3.2-7.57-7.25-8.98-1.87-.65-3.18-.57-6.32.43-1.22.38-2.63.68-3.15.68-1,0-2.25-.52-2.77-1.17-.19-.22-.43-2.33-.6-5.24-.16-2.66-.41-6.35-.57-8.2l-.27-3.31,1.28-1.98c.71-1.06,2.01-2.74,2.9-3.72.9-.98,1.93-2.23,2.28-2.77.84-1.28,1.66-1.55,5.51-1.87,2.36-.22,3.47-.43,4.59-.95l1.47-.71-.16-1.3c-.38-3.2-2.85-5.7-5.65-5.7-.41,0-1.57.43-2.63.98-1.57.76-2.33,1.38-4.02,3.31-1.14,1.3-2.39,2.85-2.8,3.45-.95,1.47-1.36,1.74-2.5,1.76-.76,0-1.52-.41-3.66-1.9-4.83-3.37-8.9-6.49-10.8-8.25l-1.87-1.74.14-1.6c.24-3.28,4.07-9.42,8.39-13.49,3.69-3.47,11.32-8.12,15.61-9.5,3.07-1,4.86-1.25,9.12-1.25,4.99,0,9.36.92,13.38,2.85,3.42,1.63,7.87,5.84,10.02,9.45,2.17,3.69,3.58,10.23,3.37,15.8-.11,2.58-.27,3.39-1.17,5.97-.54,1.66-1.28,3.47-1.57,4.07-.81,1.66-3.01,4.78-3.94,5.67l-.84.79,1.82,1.28c3.61,2.52,7.41,7.71,9.04,12.27l.9,2.5.46-3.72c.52-4.07,1.19-8.25,4.45-26.93.49-2.82,1.03-6.57,1.22-8.28l.35-3.12,2.63-2.71c1.44-1.49,3.64-3.91,4.86-5.37,1.25-1.47,2.61-2.82,3.04-3.04.98-.52,3.72-.52,7.03,0,1.41.22,3.61.54,4.89.68,1.28.16,3.47.52,4.89.79,1.41.3,3.01.6,3.58.68,1.25.22,1.49.81,2.66,6.3.49,2.23,1.41,6.49,2.04,9.47,1.17,5.32,1.71,8.2,3.39,17.78.9,5.1,3.04,14.6,5.67,25.11.9,3.58,1.71,6.98,1.79,7.52l.19,1,2.12-1.44c1.17-.81,3.64-2.28,5.51-3.26,2.74-1.47,3.61-1.79,4.61-1.79s1.33.14,1.79.71c.3.38.62.95.73,1.28.62,2.06,3.85,5.67,6.05,6.81l.92.49-.16-1.09c-.62-3.85-2.58-7.22-5.21-8.9-.81-.52-1.71-1-1.98-1.11-1-.35-6.87-4.1-9.55-6.13-6.87-5.16-9.39-8.6-10.72-14.66-.65-2.9-.46-8.9.38-12,.76-2.93,2.96-7.3,4.86-9.69,3.09-3.88,8.17-7.95,12.38-9.99,3.34-1.57,5.65-1.98,10.59-1.82,4.86.14,6.27.43,9.96,2.06,4.61,2.04,8.77,5.75,10.42,9.36,1.55,3.34,1.49,3.56-2.69,9.26-2.69,3.66-3.04,4.1-6.76,8.09-2.61,2.77-3.12,3.18-3.88,3.18-1,0-2.14-.81-2.39-1.74-.19-.79-2.99-3.42-4.7-4.4-1-.6-1.33-.68-1.74-.43-.27.19-.73.33-.98.33-.33,0,0,.46,1,1.52,2.04,2.09,4.94,4.26,8.82,6.62,6.98,4.26,10.4,6.95,12.3,9.64.65.98.57,1.17,1.52-3.53.79-3.8,1-4.8,2.44-11.26.52-2.31,1.19-5.78,1.52-7.74.33-1.93.68-3.66.76-3.83.11-.16,2.55-2.52,5.4-5.24,5.21-4.89,5.24-4.91,6.46-4.91.68,0,1.6.19,2.06.41.43.24,1.44.54,2.23.71,2.09.41,9.66,1.63,10.97,1.79.62.08,1.33.35,1.57.65.71.76,5.24,16.5,7.06,24.48.41,1.68.98,3.99,1.28,5.16l.6,2.14.3-1.06c.46-1.55,3.12-6.79,4.48-8.77,1.33-1.95,4.32-5.18,5.92-6.38l1.09-.81-.14-1.9c-.08-1.09-.38-2.39-.71-3.04-1.09-2.25-.38-3.83,3.53-7.98l2.25-2.33,3.45-.46c3.77-.49,8.41-.84,14.25-1.14,4.99-.24,4.91-.3,5.32,3.61.16,1.6.3,3.83.33,4.91,0,1.87-.03,1.98-.68,2.23-.41.16-1.03.27-1.44.27-.65,0-.6.08.46.54.65.3,1.28.54,1.44.54.92,0,5.59,4.42,6.98,6.62l.81,1.33-.14-3.64-.16-3.64,1.47-2.23c.79-1.19,1.82-2.77,2.25-3.45.46-.71,1.22-1.79,1.68-2.42.49-.62.9-1.25.9-1.41,0-.46,8.12-2.82,11.13-3.26,3.91-.54,4.29-.52,4.64.22.14.33.43.87.62,1.22.27.46.38,3.77.52,14.11.19,12.51.41,24.08.9,43.16l.19,7.71.54-.92c.3-.49,1.03-1.68,1.68-2.66.62-.98,1.33-2.09,1.55-2.47.62-1,8.85-9.42,10.1-10.34.76-.54,1.38-.76,2.17-.76,1,0,1.3.16,2.61,1.52,1.85,1.85,3.66,3.07,6.05,4.02,1.76.68,1.9.71,2.74.3,1.76-.84,2.71-2.06,3.31-4.26.79-3.04.35-5.16-1.41-6.73-1.52-1.33-2.69-1.71-4.64-1.55-1.98.14-4.91,1.52-6.92,3.2-2.61,2.17-3.53,2.33-6.19.98-2.25-1.14-8.9-5.84-9.96-7.06-.79-.9-.81-1-.98-4.7-.08-2.06-.11-6.27,0-9.34.08-3.07,0-8.14-.16-11.29l-.3-5.73,1.6-2.96c1.95-3.66,3.75-6.81,4.4-7.76.3-.38.52-.87.52-1.09,0-.52,1.33-1.74,2.17-1.98.79-.22,6.38-2.31,10.99-4.07,1.79-.71,7.82-2.8,13.41-4.64,12.7-4.23,15.28-4.83,15.72-3.64.16.43.33.22.81-1.06.71-1.79.41-1.63,5.21-3.15,1.71-.54,4.26-1.41,5.65-1.93,1.9-.68,2.93-.92,4.23-.92h1.74l1.38,3.18c.79,1.76,1.87,4.45,2.42,6l1,2.82.46-2.55q1.22-6.41,3.31-8.69c4.91-5.35,5.84-6.41,6.22-7.3.24-.62.73-1.11,1.3-1.38,7.63-3.56,14.14-6.19,15.36-6.19.41,0,.98-.22,1.28-.49.68-.6,5.86-2.9,7.68-3.42.71-.22,2.04-.46,2.9-.54.9-.11,1.76-.3,1.95-.46.19-.14.98-.24,1.79-.19l1.44.08-.05,7.19c-.03,3.96-.24,11.24-.49,16.15-.52,10.4-.38,30.4.3,41.5.54,9.23,1.76,18.76,2.28,18.16.33-.38.79-3.85,1.11-8.5.38-5.37.19-15.12-.57-31.62-.3-6.41-.68-14.55-.84-18.05s-.41-7.55-.57-8.96-.33-3.88-.41-5.48l-.11-2.9,1.76-3.34c.98-1.85,2.09-4.18,2.47-5.24.41-1.03,1-2.2,1.33-2.58.33-.38.81-1,1.06-1.38.95-1.57,11.16-6.49,13.44-6.49,1.09,0,1.19.08,1.57.95.19.52.38,1.17.38,1.47,0,1.33.6.57,2.39-2.9,1.06-2.04,2.2-3.99,2.55-4.32s3.26-1.93,6.49-3.58c5.81-2.99,5.92-3.01,7.74-3.01,1.03,0,2.04.11,2.23.22.22.16.41,1.28.54,3.18l.19,2.93,1.63-2.28c7.65-10.8,7.9-11.07,10.78-12.16.92-.35,3.2-1.36,5.02-2.25,1.82-.87,3.42-1.57,3.56-1.57s.76-.35,1.44-.79c.92-.62,1.66-.84,3.12-.98,1.76-.19,2.01-.14,2.52.38.71.71.76,2.42.14,4.13-.41,1.14-1.19,4.83-1.19,5.48.03.46,2.63-4.56,4.91-9.45,2.36-5.08,2.8-5.65,4.78-6.38.87-.33,1.68-.68,1.85-.81.14-.11,1.52-.9,3.04-1.74,4.7-2.58,10.15-4.78,11.92-4.78s2.06.87,2.93,6.51c.38,2.61.9,6.27,1.11,8.14.73,6.03,1.76,13.9,2.17,16.69.22,1.49.6,4.64.81,7.03.24,2.36.65,5.84.95,7.74.27,1.87.65,4.91.84,6.76.16,1.82.35,3.28.38,3.26.11-.14-.35-17.75-.68-25.6-.16-3.88-.35-10.21-.46-14.06-.14-6.05-.11-7.03.24-7.46.24-.24,1.57-2.77,3.01-5.62,1.41-2.82,3.09-6.13,3.75-7.33s1.55-2.9,2.01-3.8c1.49-2.93,5.35-5.21,11.94-7.11,2.5-.71,3.07-.76,7.33-.76,5.18,0,5.78.14,10.02,2.23,2.88,1.41,4.8,2.82,6.92,5.13l1.57,1.71-.14-2.12c-.11-2.12-.11-2.14.98-3.77.62-.9,2.52-4.48,4.26-7.95,2.71-5.46,3.28-6.41,3.96-6.7,1.33-.54,10.75-2.44,13.79-2.74,4.21-.43,4.23-.43,4.91.65.57.95.6,1.14.52,9.17-.05,4.51,0,14.3.14,21.77.14,8.93.11,16.01-.08,20.77-.71,17.18-.9,28.8-.57,36.37.16,4.1.35,17.37.43,29.45.05,12.11.22,26.68.38,32.44.52,19.19.81,34.31.73,37.65-.05,3.12-.11,3.37-.76,4.07-.95,1.03-1.28,1.6-3.94,6.68-1.28,2.42-2.52,4.61-2.77,4.86-.92.95-12.35,1.41-15.55.65-1.25-.27-2.12-.27-4.75,0-4.83.52-9.88.92-11.16.92s-1.06.52-2.25-4.75c-1.38-6.22-1.76-7.95-2.42-11.54-1.11-6.13-1.79-9.72-2.23-11.81l-.49-2.44.14,4.75c.08,2.61.27,5.48.41,6.38s.24,2.63.24,3.88c0,2.2-.03,2.28-1.55,5.16-.87,1.6-2.31,4.42-3.23,6.3-1,2.01-1.95,3.56-2.33,3.77-.76.49-11.94.76-13.68.35-.62-.14-1.3-.16-1.49-.05-.22.14-2.04.35-4.04.54-2.01.16-5.18.49-7.06.73-1.87.27-4.18.46-5.16.46-1.71.03-1.74.03-1.93-.79-.11-.43-.38-1.33-.62-1.93-.41-1.09-1.09-5.73-1.52-10.29-.19-2.01-.76-6.79-1.76-14.52-.24-1.71-.65-6.05-.95-9.64s-.73-8.22-.95-10.31-.52-5.37-.71-7.27c-.16-1.93-.41-3.39-.52-3.26-.11.11-.35,3.28-.52,7-.19,3.75-.52,9.61-.73,13.03-.19,3.45-.57,10.4-.81,15.47l-.46,9.2-1,1.52c-.57.81-1.3,2.04-1.63,2.71-.35.68-1.52,2.66-2.63,4.4l-1.98,3.15-1.79.22c-1,.08-2.69.11-3.77,0-1.22-.11-3.39-.03-5.73.24-2.09.24-5.32.6-7.22.81-4.13.49-7.55.52-8.47.11-.49-.24-.71-.6-.84-1.44-.08-.6-.52-2.2-.95-3.56-.43-1.33-1.14-3.72-1.6-5.29-.46-1.57-1.38-4.67-2.06-6.92l-1.22-4.07.14,4.53.14,4.51-.92,1.33c-.52.71-2.14,3.26-3.64,5.65s-2.99,4.61-3.28,4.94c-.43.46-1,.62-2.85.76-1.28.11-2.96.14-3.75.03-.79-.08-3.64-.3-6.32-.43-5.81-.3-5.62-.19-5.51-3.39.03-1.19.05-4.42,0-7.19l-.08-5.02-1,1.9c-5.27,9.88-10.21,13.41-18.68,13.44-4.04,0-8.82-1.41-11.86-3.5-3.01-2.06-6.49-6.65-7.9-10.42-3.5-9.28-5.56-29.94-5.27-52.42l.16-10.61-.81,2.99c-.43,1.66-1.38,4.99-2.06,7.46l-1.28,4.48v52.12l-1.14,2.17c-2.14,4.04-4.26,7.3-5.18,7.93-1.28.84-3.15,1.03-9.96,1.03-5.86,0-6,0-6.89-.65-.87-.62-.9-.71-.76-2.04.05-.76,0-2.12-.14-3.01-.14-.9-.35-9.93-.49-20.09-.16-10.15-.43-20.9-.62-23.89-.3-5.1-.38-5.51-1.06-6.68-.71-1.22-3.34-7.22-6.05-13.79-.68-1.68-1.63-3.88-2.09-4.89-.46-.98-1.28-2.99-1.82-4.42l-1-2.66-1.9,3.72c-1.25,2.44-2.12,3.85-2.58,4.13-.41.24-3.77,1.41-7.52,2.61l-6.81,2.17,4.26.16c2.33.08,4.75.33,5.35.49,4.07,1.25,6.11,2.47,9.09,5.48,2.04,2.06,2.61,2.85,3.66,5.08,1.63,3.37,3.23,8.9,3.66,12.62.43,3.56.22,9.77-.41,12.78-.52,2.44-3.5,11.1-4.83,14.06-2.23,4.86-6.08,9.83-10.15,13.14-5.08,4.07-13.65,6.11-20.71,4.89-5.27-.92-10.18-2.96-14.17-5.92-2.42-1.79-4.72-4.13-5.46-5.51l-.41-.81-.16,1.09c-.41,2.66-4.61,9.36-6.3,10.07-1.22.52-6.16.62-9.74.22-2.28-.27-2.74-.27-2.93.05-.24.43-2.8.54-3.39.14-.6-.38-.87-2.14-.87-6.16,0-2.09-.08-4.97-.19-6.35l-.16-2.52-.6,1.33c-1.38,3.09-4.83,7.6-7.33,9.55-1.74,1.36-4.53,2.77-7.46,3.75-2.17.71-2.58.76-7.19.76-4.26.03-5.16-.05-7-.6-2.71-.79-5.24-2.06-7.76-3.96-1.11-.84-2.12-1.49-2.25-1.47-.11.05-.95,1.25-1.9,2.66l-1.71,2.58-1.47.19c-2.42.27-14.25.57-15.61.38-1.19-.19-1.25-.24-1.25-1.06,0-.49-.27-1.41-.57-2.09-.79-1.71-1.17-3.15-3.07-11.54l-1.68-7.33-1.14-.08c-1.09-.08-1.17-.03-1.55.84-.22.52-.76,2.88-1.22,5.24-1.52,7.9-1.82,8.93-3.09,10.37-.62.71-1.47,1.71-1.9,2.23-.43.52-1.47,1.68-2.33,2.61l-1.57,1.66-8.25-.22c-4.51-.11-8.77-.3-9.42-.41l-1.19-.19.16-2.28c.08-1.22.11-2.25.03-2.25-.05,0-.6.3-1.19.68s-1.19.68-1.36.68-.27,1-.27,2.58v2.55l-1.28,1.57c-5.21,6.41-5.13,6.35-6.79,6.27-.57-.03-2.31-.08-3.88-.14h0Zm7.6-14.71c0-5.29.11-5.75,1.47-6.51,7.65-4.37,11.43-8.88,12.65-15.09.84-4.21.68-6.87-.68-10.99-1.49-4.61-2.61-6.54-5.13-9.04-2.5-2.47-7.17-6.05-9.53-7.27-4.07-2.14-8.77-5.75-10.56-8.12-1.28-1.68-1.79-3.58-1.79-6.84,0-4.23,1.74-7.11,5.02-8.33,1.82-.68,5.21-.76,6.89-.19,1.6.6,4.13,2.36,5.37,3.85l1.09,1.28,2.77-2.52c1.52-1.38,2.88-2.74,3.01-2.99.22-.41.03-.79-.9-1.87-2.8-3.26-7.76-6.22-12.43-7.38-2.66-.65-5.16-.57-8.6.33-4.78,1.25-7.68,3.26-10.1,6.95-1.09,1.63-1.41,2.5-2.17,5.56-1.38,5.56-1.14,8.25,1.28,13.22,1.06,2.23,1.57,2.93,3.85,5.18,2.69,2.69,4.67,4.13,12.16,8.66,5.81,3.56,8.85,7,9.99,11.29.54,2.14.54,5.94-.03,7.71-.68,2.01-2.63,4.29-4.59,5.29-1.49.79-1.85.84-4.37.84s-2.8-.05-4.78-1.03c-2.33-1.14-4.18-2.96-5.86-5.75l-1.03-1.71-1.49,1c-.84.57-2.61,1.68-3.94,2.47-1.33.81-2.47,1.49-2.52,1.55-.16.11,1.49,3.42,2.36,4.67,1.33,1.95,4.67,5.13,6.7,6.41,1.85,1.14,5.73,2.85,6.51,2.85.19,0,.57.22.81.46.43.41.46.92.27,5.02l-.19,4.56h8.47v-3.5Zm91.56-5.32c4.83-1.25,7.63-3.96,10.75-10.31,1.03-2.09,2.06-4.56,2.31-5.48.62-2.31.73-10.29.16-12.08l-.38-1.3h-1.79c-2.8.03-14.39.71-14.52.87-.08.08-.08,1.33.03,2.77l.19,2.61h4.42c2.42,0,4.59.08,4.83.16.35.14.43.6.43,2.25,0,3.88-1.52,7.82-3.94,10.23-1.85,1.87-3.42,2.39-7.19,2.39-2.5.03-3.04-.05-4.34-.68-5.75-2.69-9.04-9.28-9.42-18.84-.11-3.34-.05-4.23.54-7.33,1.19-6.22,2.31-8.69,5.24-11.81,2.88-3.04,5.73-4.1,9.64-3.56,2.66.35,4.02,1.11,5.29,2.85l1.06,1.47,1.9-1.82c1.06-1,2.33-2.14,2.85-2.55l.95-.71-.54-.98c-1.74-3.26-8.71-7.19-12.7-7.19-4.26,0-8.63,2.12-13.19,6.38-3.42,3.2-5.4,7.36-7.08,14.9-1.17,5.16-1.47,8.98-1.09,13.06.3,3.34.54,4.4,1.95,8.82,2.74,8.55,7.74,13.98,14.44,15.74,2.42.65,7,.71,9.2.14h0Zm-195.46-1.49c6.98-2.33,12.43-6.57,15.58-12.08,1.79-3.12,2.66-5.59,3.26-9.2.84-5.18-.05-9.58-3.15-15.61-2.52-4.89-4.34-6.7-9.26-9.17l-2.55-1.3-.08-1.25c-.08-1.19-.05-1.25,1.47-2.44,2.23-1.74,5.4-5.7,6.65-8.31,1.44-2.96,2.25-6.81,2.01-9.45-.52-5.56-3.07-10.86-7.36-15.28-1.74-1.79-7.25-4.45-11.07-5.37-2.82-.65-3.15-.68-5.59-.38-8.55,1.03-15.39,5.35-18.73,11.83-.71,1.36-1.09,2.39-.92,2.47.35.11,5.18,3.64,7.11,5.18,1.44,1.11,1.95,1.25,1.95.41,0-.22.38-1.14.87-2.04,1.03-1.95,3.61-4.4,5.56-5.29,3.09-1.41,7.49-1.49,10.4-.19,6.16,2.77,7.79,12.05,3.31,18.87-.73,1.11-1.63,2.28-1.98,2.61-1.71,1.55-6.19,3.09-10.1,3.5-1.38.14-1.82.27-1.71.54.08.22.22,2.47.33,5.02l.19,4.64,3.15-.19c3.75-.19,6.19.3,9.28,1.93,3.37,1.76,6.38,5.75,7.03,9.31.49,2.61.35,7.9-.27,9.85-.71,2.33-2.33,4.78-3.83,5.75-.65.46-1.55,1.14-2.01,1.55-1.17,1.03-3.15,1.63-6.11,1.79-3.18.19-6.11-.24-7.95-1.17-1.52-.79-5.54-4.64-6.95-6.7-.54-.79-1-1.22-1.19-1.09-.19.11-.95.6-1.74,1.09s-1.49.9-1.6.9-.46.24-.76.52c-.33.3-1.55,1.03-2.74,1.66-1.19.62-2.2,1.17-2.25,1.22-.16.16,1.09,2.42,2.52,4.61.79,1.19,2.52,3.23,3.85,4.48,1.95,1.9,3.01,2.63,5.78,4.1,4.48,2.39,6.6,3.01,11.62,3.5,3.23.3,5.21.11,7.98-.81h0Zm162.54.24c2.31-.16,4.23-.33,4.26-.35.05-.05-.11-.68-.33-1.41s-.87-3.15-1.47-5.4c-1.14-4.4-3.99-14.9-5.56-20.63-.54-1.93-1.71-6.22-2.63-9.5-.9-3.28-1.87-6.7-2.14-7.6s-1-3.58-1.63-5.97-1.76-6.73-2.55-9.64l-1.41-5.29-2.01-.19c-1.11-.14-2.39-.33-2.85-.46-.43-.16-1.41-.35-2.17-.46-.73-.08-2.2-.35-3.23-.54-2.14-.43-2.33-.35-2.33,1.25,0,1.49-1.03,7.38-1.9,10.99-.95,4.04-1.95,8.93-2.99,14.66-.14.76-.81,4.04-1.49,7.33s-1.41,7.19-1.66,8.69c-.22,1.49-.71,4.18-1.09,5.97-.35,1.79-1.28,6.38-2.01,10.18-.76,3.8-1.47,7.25-1.6,7.68l-.24.73h4.72c2.61,0,4.8-.03,4.94-.05.11-.03.41-1.57.68-3.45.52-3.61,2.63-14.39,3.42-17.4.43-1.74.46-1.76,1.52-1.95,1.38-.24,10.64-.22,11.51.03.87.24,1.36,1.68,2.88,8.44.65,2.9,1.49,6.38,1.87,7.71.38,1.3.9,3.5,1.14,4.83l.46,2.44.84-.16c.46-.08,2.74-.3,5.05-.46h0Zm105.51-.33c3.31-.98,7.82-4.4,10.21-7.76,2.33-3.26,4.91-8.85,5.75-12.38,1.49-6.46.79-14.74-1.74-20.28-1.93-4.29-5.24-7.95-8.77-9.66-2.9-1.41-4.18-1.74-7-1.76-2.69,0-5.65.9-9.12,2.77-2.12,1.14-3.58,1.41-4.15.73-.22-.24-.3-2.8-.24-8.74l.08-8.39,1.22-.6c1.49-.76,14.98-5.16,20.17-6.6,2.06-.57,3.8-1.09,3.88-1.14.05-.08.08-2.52.05-5.43l-.08-5.29-3.12,1.19c-7.9,3.01-18.08,6.57-23.89,8.36-1.11.35-3.12,1.03-4.45,1.55l-2.42.9-.05,15.23c-.03,8.39-.14,15.36-.22,15.5-.16.24.87.95,5.54,3.96l1.52.95,1.3-1.3c2.14-2.17,6.16-3.8,9.36-3.8,4.23,0,7.3,1.33,9.53,4.13,2.25,2.85,2.96,5.54,2.96,11.35,0,3.72-.41,5.73-1.63,8.14-1.03,2.04-1.9,3.04-4.26,4.91-1.68,1.36-2.25,1.63-4.02,2.01-3.01.68-6.46.46-8.96-.54-1.93-.76-4.59-2.39-5.86-3.58l-.71-.65-1.17,1.44c-.65.79-2.14,2.39-3.31,3.56-1.74,1.74-2.06,2.23-1.85,2.61.14.27,1.22,1.38,2.39,2.5,3.45,3.26,9.12,6.05,13.63,6.73,2.8.43,6.87.16,9.42-.6h0Zm-39.44-.19c.14-.14.11-3.91-.08-9.15-.27-7.36-1.06-48.1-1.11-55.92v-2.2l-1.68.38c-2.33.54-7.08,2.01-7.38,2.28-.11.14-.08,1.71.11,3.58.22,2.23.35,10.48.41,24.65.05,11.73.22,23.89.38,27.01.16,3.15.3,6.65.3,7.84v2.12l4.42-.19c2.42-.11,4.51-.3,4.64-.41h0Zm-155.56-.68c1.52-.16,1.82-.27,1.71-.65-.08-.24-.65-2.58-1.25-5.18-.62-2.61-1.6-6.57-2.17-8.82-1.06-4.07-1.85-7.57-4.21-18.59-.68-3.2-1.68-7.65-2.2-9.91-.49-2.23-1.17-5.4-1.49-7.06-1.17-6.27-2.14-10.99-3.04-14.66-.52-2.09-1.33-6.05-1.79-8.82-.49-2.77-.98-5.27-1.09-5.54-.16-.43-.84-.62-3.85-1.17-2.93-.49-6.79-1.11-9.72-1.52-.52-.08-1.22,3.26-2.2,10.26-.16,1.19-.84,4.99-1.49,8.41-1.17,5.97-2.88,16.23-3.26,19.41-.11.81-.35,2.28-.54,3.26-.62,2.96-1.44,7.65-1.63,9.23-.11.81-.35,2.28-.54,3.26-.22.98-.68,4.34-1.09,7.46-.71,5.78-1.44,10.21-2.8,17.13l-.76,3.83,3.23.19c1.79.08,4.15.16,5.21.16h1.95l.19-2.23c.11-1.22.3-2.71.43-3.31.14-.62.68-3.91,1.22-7.36.54-3.42,1.17-7.41,1.38-8.82.22-1.41.49-3.18.6-3.94.14-1,.33-1.41.81-1.66.41-.19,2.88-.3,7.44-.27l6.84.03.38,1.76c.19.98.79,3.91,1.3,6.51s1.17,5.78,1.44,7.06c1.57,7.08,1.95,8.9,2.09,10.56l.16,1.82,3.45-.33c1.87-.19,4.26-.43,5.27-.52h0Zm242.18-2.63c-.22-5.32-.73-45.25-.6-47.04.16-2.2.68-4.59,1.79-8.41.43-1.49,1.25-4.42,1.79-6.51s1.55-5.81,2.23-8.28,2.2-8.2,3.34-12.76c1.17-4.56,2.66-10.34,3.34-12.89.68-2.52,1.19-4.67,1.11-4.72-.05-.05-1.38.46-2.99,1.17-1.57.71-3.47,1.52-4.26,1.79-.79.27-1.6.57-1.85.68-.6.22-1.41,3.2-2.42,8.69-1.55,8.58-3.69,18.38-5.4,24.7-1.19,4.37-1.11,4.26-2.77,4.15l-1.38-.08-1.19-3.12c-.68-1.71-3.07-8.01-5.29-13.98-2.25-5.97-4.1-10.88-4.15-10.91-.03-.05-1.95.54-4.29,1.3l-4.23,1.36,2.04,4.67c2.63,6.11,5.51,13,7.95,19.06,1.09,2.69,2.2,5.35,2.5,5.92,1.06,2.14,3.15,7.74,3.56,9.55.33,1.47.46,4.78.57,14.79.24,16.99.68,32.38.98,32.68.14.11,2.28.33,4.8.43,2.5.11,4.64.22,4.75.22.11.03.14-1.09.08-2.44h0Zm40.2,1.79c3.39-.79,4.78-1.79,6.89-4.99,2.82-4.34,3.99-7.95,4.72-14.93,1.68-15.63,1.93-21.09,1.93-43.02,0-15.99-.08-21.2-.49-27.01-.24-3.96-.6-10.18-.73-13.84-.33-7.93-.76-14.68-.95-14.87-.16-.16-1.19.24-4.99,2.04l-3.09,1.44.19,3.34c.08,1.82.3,4.91.43,6.84.16,1.95.46,9.34.68,16.42s.52,15.88.68,19.54c.22,4.67.22,10.18.03,18.59-.46,19.16-1.11,24.05-3.77,27.82-1.47,2.12-2.23,2.58-4.13,2.58-1.36-.03-1.79-.16-3.07-1.03-.92-.6-1.79-1.47-2.2-2.14-2.63-4.53-3.77-14.11-4.21-35.64-.16-7-.35-14.82-.43-17.37-.16-4.7.11-11.73.81-22.64.22-3.37.41-7,.41-8.09v-1.95l-1.11.38c-.6.22-1.41.57-1.82.81s-1.71.84-2.9,1.33l-2.17.92.08,2.25c.03,1.25-.19,6.08-.49,10.69-.98,14.44-1.14,22.26-.81,39.09.14,8.52.38,16.1.52,16.86s.33,2.96.43,4.89c.46,9.28,2.28,18.78,4.42,23.05,1.85,3.69,3.28,5.46,5.84,7.19,2.8,1.85,5.67,2.31,9.31,1.47h0Zm58.6-2.14c1.79-.22,3.69-.41,4.21-.41h.98l-1.44-4.4c-.79-2.44-1.74-5.35-2.14-6.46-1.68-4.91-5.62-17.18-6.24-19.54-.38-1.41-1.44-4.89-2.33-7.74-.9-2.82-2.42-7.84-3.34-11.13-.95-3.28-2.04-7-2.39-8.28-.38-1.28-.76-2.74-.87-3.26-.11-.52-.68-2.52-1.25-4.48-1.14-3.85-1.25-4.86-.68-6.68.22-.65,1.19-4.48,2.17-8.52.98-4.02,2.58-10.56,3.53-14.52.98-3.96,2.31-9.45,2.99-12.21,1.49-6.35,7.36-29.37,8.06-31.84.3-1.03.49-1.93.41-2.01-.05-.08-2.33.92-5.05,2.2-2.71,1.28-5.05,2.33-5.18,2.33-.11,0-.3.46-.38,1.03-.49,2.82-1.03,5.54-1.49,7.25-.3,1.06-1.14,4.53-1.9,7.74-.73,3.2-1.79,7.68-2.31,9.91-1.82,7.74-3.09,13.3-3.39,14.93-.54,2.77-2.66,10.72-3.58,13.49l-.9,2.66h-.98c-1.85,0-1.95-.24-2.23-5.18-.11-2.44-.19-13.19-.14-23.86l.08-19.41-4.34,2.12c-2.39,1.17-4.53,2.23-4.75,2.33-.35.19-.41,1.09-.33,6.03.05,3.2.19,7.76.3,10.15.14,2.39.14,14.11.03,26.06-.08,11.94-.08,24.84.05,28.64.54,17.35.84,30.35.9,41.07.05,6.41.14,11.67.19,11.73s2.33.16,5.08.22l4.97.11-.16-2.2c-.22-2.61-.6-15.96-1.09-37.62-.35-15.58-.35-15.61.19-16.2.68-.76,2.06-.81,2.9-.14.43.35,1.06,2.09,2.44,6.7,1,3.45,2.31,7.71,2.85,9.5s1.6,5.46,2.33,8.14c1.36,4.91,4.64,16.01,5.81,19.54.35,1.06,1.33,4.23,2.17,7.06.84,2.85,1.57,5.32,1.66,5.54.08.24.33.3.73.19.33-.11,2.06-.35,3.85-.57h0Zm16.45-1.41c.03-2.8.24-8.01.52-11.89.14-2.39.41-7.71.54-11.81.16-4.1.41-9.12.54-11.13.16-2.01.46-6.7.71-10.45.22-3.72.57-8.36.73-10.31l.33-3.53.95-.33c.52-.19,1.52-.33,2.2-.33.68-.03,2.44-.22,3.94-.43,3.72-.57,5.89-.54,6.41.08.27.27.49,1.25.57,2.5.08,1.11.41,3.99.71,6.38s.73,5.94.98,7.87c.62,5.27,2.74,24.38,3.23,29.18.22,2.31.81,6.7,1.3,9.74l.9,5.51,1.38-.16c.73-.08,2.99-.24,4.97-.33l3.58-.19-.14-.98c-.08-.54-.22-1.66-.3-2.47-.11-.81-.41-2.77-.68-4.34s-.6-3.53-.68-4.34c-.11-.81-.41-2.82-.68-4.48-.27-1.63-.57-3.83-.68-4.89-.22-2.47-1.09-9.15-1.9-14.93-.38-2.52-.79-5.46-.95-6.51-.14-1.03-.76-5.81-1.36-10.59-.62-4.78-1.41-10.69-1.76-13.16-1.3-8.96-1.47-10.21-1.76-12.49-.35-2.85-1.85-13.68-3.26-23.62-.57-4.1-1.19-8.63-1.36-10.04-.33-2.8-1.82-13.63-2.71-19.54-.3-2.01-.73-5.13-.92-6.92-.22-1.79-.71-6.03-1.14-9.42l-.76-6.16-1.22.71c-.71.41-2.28,1.36-3.56,2.12s-3.61,2.09-5.21,2.96l-2.93,1.55v2.23c0,1.22-.14,3.39-.27,4.8s-.43,4.91-.68,7.74c-.22,2.85-.54,6.27-.68,7.6-.3,2.66-.68,6.95-1.09,12.62-.87,11.94-1.9,25.33-2.17,28.39-.14,1.63-.27,3.96-.27,5.16s-.19,3.99-.41,6.22c-.81,8.03-.92,9.55-1.09,13.16-.11,2.01-.41,7.76-.71,12.76-.27,4.99-.65,11.78-.81,15.06-.14,3.28-.46,8.31-.68,11.13-1.03,13.33-1,12.57-.38,14.79.84,3.04,1.06,4.1,1.09,5.21,0,1.22.03,1.22,4.29,1.28l3.31.03.03-1Zm49.73-1.09c.3-.16.24-4.1-.22-11.59-.22-3.75-.52-9.93-.71-13.73-.33-7.57-.68-58.47-.43-59.53.35-1.36,4.23-2.69,5.05-1.74.16.22.49,1.47.71,2.8.22,1.33.6,3.34.81,4.45.22,1.11.76,4.13,1.19,6.65.46,2.55,1.06,6,1.38,7.68.33,1.66.92,5.46,1.36,8.41.41,2.93,1.09,7.19,1.47,9.42.38,2.25,1.19,7.14,1.79,10.86,1.09,6.6,2.61,15.42,4.48,25.65.49,2.77,1.06,6.41,1.25,8.12l.35,3.07,4.48-.19c2.47-.11,4.59-.27,4.67-.35.11-.11-.16-2.25-.6-4.8-1.06-6.49-1.22-7.38-2.04-11.67-.38-2.09-.79-4.4-.92-5.16-.14-.73-.54-3.01-.92-5.02-.35-2.01-1.25-6.95-1.93-10.99-.68-4.02-1.71-9.72-2.31-12.62-1.22-6.11-2.42-12.4-3.37-17.64-2.69-14.9-3.8-20.71-4.26-22.12-.62-1.95-.65-2.85-.11-3.56.22-.27.41-.73.41-.98,0-.27.92-1.9,2.06-3.64,4.78-7.38,7.08-13.54,9.36-25.08,1.68-8.55,1.71-12.16.22-21.85-.49-3.12-2.14-9.58-3.18-12.49-.98-2.66-1.03-2.77-3.72-5.46-2.82-2.82-5.73-4.97-7.76-5.7-1.85-.65-4.75-1.19-6.3-1.19-3.58,0-10.15,2.23-13.6,4.59-1.19.84-1.22.9-1.09,2.01.22,1.76.62,18.08.92,37.24.14,9.55.33,17.56.41,17.75.19.46.57,12.49.98,29.89.62,27.74.73,31.87,1.03,44.11.16,7.03.41,15.63.57,19.14s.27,8.41.27,10.88.08,4.59.19,4.7c.22.22,7.63-.08,8.03-.3h0Zm45.82-5.7c.08-2.52.11-9.93.11-16.5,0-10.12-.05-12.05-.41-12.62-.33-.57-.41-2.28-.46-10.18-.03-5.21-.14-21.72-.24-36.64s-.19-29.1-.22-31.49.08-9.72.22-16.29c.16-6.57.27-12.38.27-12.89s-.16-1.71-.38-2.63c-.33-1.49-.33-2.23.08-6.11.33-3.18.46-6.76.46-12.7,0-9.69-.19-18.89-.41-19.54-.14-.43-.33-.43-2.12-.11-1.06.19-2.69.52-3.58.76-.9.22-2.63.49-3.85.57-2.06.19-2.25.24-2.25.79,0,.3.22,3.31.46,6.68.41,5.27.46,9.91.41,34.2-.03,15.44.05,32.63.22,38.14.38,14.09.54,25.35.84,56.19.16,14.79.38,28.09.52,29.59.11,1.49.22,5.56.24,9.04l.03,6.3h9.96l.11-4.53Zm-334.17.46v-.81h-2.5c-1.49,0-2.39.11-2.23.24.71.68,2.52,1.38,3.56,1.38,1.11,0,1.17-.03,1.17-.81h0Zm-8.93-9.26c-.16-.76-.3-1.66-.3-2.01,0-.68,2.74-4.42,4.75-6.54,1.09-1.11,1.11-1.11,3.8-1.41,5.81-.65,9.12-.9,13.22-.95,2.36-.05,4.34-.14,4.42-.22.08-.11.11-3.56.08-7.71l-.08-7.52-.92,1.3c-1.44,2.01-6.95,8.41-9.04,10.5-1.71,1.68-1.93,1.82-3.04,1.82s-1.25-.08-2.17-1.36c-1.14-1.57-3.37-2.99-4.78-2.99-1.11,0-2.77.81-3.96,1.95-2.96,2.82-4.23,10.75-2.52,15.96.52,1.6.68,1.87.73,1.28.05-.43-.03-1.38-.19-2.12h0Zm227.71-30.51c.38-3.77.73-8.31,1.06-13.84,1.33-20.87,2.33-35.07,3.01-41.67.38-3.61,1.36-17.26,1.33-18.43,0-.92-2.8,9.58-4.61,17.32-.43,1.85-1.41,5.7-2.17,8.55-.79,2.85-1.52,5.81-1.68,6.54-.14.76-.68,3.07-1.19,5.16s-1.17,4.97-1.47,6.38c-.27,1.41-.71,3.31-.95,4.21s-.46,2.06-.46,2.58c-.03,1.98,2.58,12.46,5.08,20.36.52,1.57,1.09,3.72,1.28,4.75.41,2.14.38,2.17.79-1.9h0Zm-152.09-3.56c-.16-.16-1.28.24-1.28.46,0,.14.3.08.68-.08s.65-.35.6-.38Zm-68.46-9.07c2.69-.3,5.4-.6,6.05-.71l1.14-.14v-1.19c0-1.14-.03-1.19-.87-1.28-.76-.08-8.41.65-13.44,1.28-1.41.16-1.44.19-1.44,1.09,0,.49.08,1.11.19,1.36.19.54-.08.54,8.36-.41Zm311.86-23.24l-.19-20.58-1.14,2.28c-1.33,2.77-2.93,5.48-3.53,5.97-.54.46-.52,1.17.27,5.24,1,5.21,2.52,14.06,2.96,17.29.57,4.18,1.63,10.59,1.71,10.48.05-.05,0-9.34-.08-20.68Zm-41.1-14.82c0-.14-.19-.22-.41-.22-.27,0-.41.27-.41.9l.03.87.38-.68c.22-.38.38-.76.41-.87Zm3.64-8.63c.08-.38-.08-.19-.35.41-.3.6-.54,1.22-.54,1.36,0,.41.71-1,.9-1.76Z"/>
    <path id="path2" class="cls-1" d="m213.7,263.57c-1.38-.11-2.69-.33-2.9-.54-.84-.68-.57-2.99,1.6-13.98,1.6-8.01,2.12-9.93,2.69-10.42.22-.19.98-.3,1.68-.24q1.3.08,1.76,1.44c1.49,4.37,5.4,20.52,5.4,22.37,0,.43-.16.9-.33,1.03-.46.35-6.68.57-9.91.35h0Z"/>
    <path id="path3" class="cls-1" d="m117.53,256.38c-.33-.38-.33-.95-.08-3.47.33-3.12,1.33-9.99,2.28-15.8.33-1.79.84-5.08,1.17-7.27.41-2.61.76-4.13,1-4.29.57-.35,2.25-.3,2.74.11.79.6,1.93,4.75,4.4,16.2.84,3.8,1.76,7.9,2.06,9.09.71,2.8.73,5.16.08,5.43-.27.11-3.37.27-6.87.35-5.78.11-6.43.08-6.79-.35h0Z"/>
    <path id="path4" class="cls-1" d="m506.43,213.98c-.27-.27-.22-8.03.08-10.67.14-1.28.43-5.05.68-8.41.22-3.37.54-7.63.68-9.5.16-1.87.46-5.89.68-8.96.24-3.07.6-6.54.81-7.74s.38-2.5.41-2.9c0-1.06.87-1.85,2.01-1.85s1.71.52,1.9,1.82c.08.57.46,2.99.84,5.37s1.11,7.46,1.63,11.26,1.25,8.88,1.63,11.26c.35,2.39.84,6.3,1.09,8.69s.54,5.16.68,6.16c.46,3.2.41,3.66-.6,3.99-1.25.38-6.73,1.11-8.5,1.11-.81,0-1.49.14-1.49.27,0,.3-2.25.38-2.52.08Z"/>
    <path id="path5" class="cls-1" d="m551.51,183.3c-.9-.24-1.6-5.43-1.98-14.6-.08-2.09-.22-10.56-.27-18.84l-.14-15.04.57-.62c1-1.06,2.99-1.55,5.59-1.38,2.93.16,4.67,1,6.98,3.34,2.63,2.63,3.91,5.48,4.97,10.83.71,3.64.65,10.42-.14,14.6-.79,4.23-2.66,9.8-4.42,13.27-1.19,2.31-1.9,3.26-3.99,5.43-2.28,2.33-2.69,2.66-3.88,2.9-1.36.3-2.44.33-3.28.11h0Zm5.54-12.7c1.47-4.07,1.66-5.18,1.47-8.82-.27-5.56-1.44-10.56-2.96-12.51-1.66-2.17-1.66-2.14-1.47,5.35.11,3.72.19,10.31.19,14.63l.03,7.87.81-1.76c.46-.98,1.33-3.09,1.93-4.75h0Z"/>
    <path id="path6" class="cls-1" d="m240.22,222.42c-1.98-.35-3.31-.76-4.94-1.55-1.44-.68-1.85-1-1.85-1.44,0-.52-.24-.62-2.09-.9-2.8-.43-6.51-.81-10.67-1.09-1.98-.14-3.91-.43-4.61-.71-.68-.24-2.63-.9-4.34-1.41s-3.5-1.11-3.96-1.3c-.49-.22-2.47-.76-4.42-1.25-3.26-.79-3.72-.84-5.1-.54-.84.16-3.91.3-6.81.3h-5.29l-1.74-.98c-.95-.54-2.33-1.49-3.09-2.17-.73-.65-1.63-1.25-2.01-1.36-.35-.08-2.39,0-4.53.16-7.14.62-7.3.62-9.09.14-1.66-.46-1.87-.46-6.32.14-5.7.73-11.78.71-13.22-.08-.76-.41-.9-.62-.9-1.47v-.98l1.57.24c2.58.41,7,.19,11.7-.54,5.27-.84,7.87-.9,8.88-.27.62.43,1.03.43,5.62,0,7.93-.71,8.17-.68,11.05,1.74,2.96,2.44,3.26,2.52,7.98,2.33,2.25-.08,5.02-.22,6.13-.33,1.33-.11,2.88-.03,4.48.27,2.28.38,10.02,2.61,14.41,4.1,1.28.43,3.09.76,5.29.95,6.98.6,11.64,1.79,11.64,2.96,0,.46.16.57.79.57.43,0,1.95.33,3.34.71,1.38.38,3.5.79,4.7.92,2.31.24,2.17.24,9.09-1.33,5.4-1.25,12.32-2.5,14.68-2.66,2.42-.19,5.21.27,6.46,1.03.76.46.87.65.79,1.55-.05.73-.22,1.03-.6,1.11-.52.08-2.71-.33-4.26-.79-.38-.11-1.25-.11-1.9.05-.65.14-1.87.38-2.69.52-.81.16-2.04.46-2.71.65-.68.22-2.2.52-3.42.68s-2.61.41-3.12.54c-3.15.92-12.68,1.85-14.9,1.47h0Z"/>
    <path id="path7" class="cls-1" d="m280.45,220.08c.08-1.11.14-1.19,1.57-1.9.81-.41,2.9-1.3,4.61-2.01,1.71-.71,3.85-1.63,4.75-2.04,1.47-.68,2.99-1.28,9.23-3.72,1.38-.52,2.25-1.09,3.15-2.01,1.22-1.28,1.3-1.3,2.85-1.3,1.03,0,1.85.16,2.23.43.57.41.71.35,2.31-.65.92-.6,2.58-1.38,3.66-1.79,1.09-.38,2.33-.9,2.77-1.11.46-.24,1.52-.41,2.58-.41,1.52,0,1.82.08,1.98.54.19.52.24.49,1.38-.24.65-.43,2.36-1.25,3.8-1.82,1.44-.57,2.39-1.09,2.14-1.14s-.73.08-1.09.33c-1.36.87-4.48.79-7.08-.16-1.09-.41-1.82-1.6-2.12-3.5-.14-.92-.54-2.17-.87-2.8-.54-1-.6-1.52-.62-5.18-.03-2.39-.16-4.4-.33-4.83-.95-2.31.08-5.73,1.9-6.43,2.39-.87,2.2-.57,2.01-3.07-.08-1.22-.22-3.2-.33-4.42-.14-1.9-.08-2.33.41-3.31.52-.98.54-1.41.41-3.5-.14-1.95-.43-3.04-1.55-6.05l-1.38-3.66.03-3.39c0-2.09.19-4.07.46-5.16.24-.98.43-1.85.43-1.98,0-.11-1.11.35-2.5,1.06-2.74,1.38-6.6,2.69-11.48,3.94-1.76.46-3.85,1.11-4.61,1.44-1.87.87-10.48,3.64-12.62,4.07l-1.76.35-2.42,4.72c-1.33,2.61-2.96,5.84-3.64,7.17-.65,1.36-1.85,3.47-2.63,4.75-.76,1.28-2.23,3.77-3.2,5.56-2.17,3.94-5.37,8.52-8.93,12.68-1.47,1.71-3.01,3.61-3.42,4.18-1.09,1.47-1.87,1.93-3.99,2.31-3.66.62-5.08.08-11.94-4.61-2.39-1.66-5.73-3.94-7.44-5.08-1.68-1.14-3.28-2.25-3.53-2.47s-1.03-.79-1.79-1.28c-.73-.49-2.55-1.68-4.02-2.69-2.17-1.49-2.85-1.82-3.75-1.82-1.25,0-2.8-.73-3.75-1.74-.35-.38-1.3-.95-2.12-1.25-1.76-.65-1.71-.65-1.71-.11,0,.22-.38.79-.84,1.25-.79.81-.9.84-2.52.68-.95-.08-2.04-.3-2.42-.49-.65-.3-.84-.22-2.2.81-.81.6-1.6,1.11-1.71,1.11-.49.03-2.36,1.68-3.15,2.77-.49.65-1.49,1.95-2.28,2.9-.81,1-1.79,2.61-2.28,3.8-1.3,3.15-2.31,4.75-3.91,6.22-1.76,1.63-3.37,2.23-5.86,2.23-1.52,0-2.09-.14-3.53-.9-1.87-.95-2.77-2.04-3.26-3.83-.16-.62-.6-1.63-.95-2.25-.79-1.36-.95-4.59-.24-4.86.62-.24,1.06-2.01.98-3.99-.05-1.76-.03-1.87.87-2.77,1.09-1.09,2.09-3.64,2.09-5.27s.84-2.99,1.93-3.01c.33,0,.49-.38.62-1.41.3-2.2.71-2.66,2.36-2.66,1.17,0,1.55-.14,2.55-.98,1.68-1.36,2.31-2.8,2.31-5.21,0-2.23.38-3.34,1.57-4.7.6-.71.87-1.28.92-2.14.08-1.06.22-1.3,1.3-2.06.68-.49,1.79-1.38,2.47-1.98,1.87-1.66,3.26-2.2,5.75-2.2s3.61.46,3.99,1.93c.22.79.43,1.03,1.28,1.28,1.47.46,4.56,2.99,5.21,4.23.38.76.9,1.19,1.9,1.66,1.71.79,2.2,1.71,2.2,3.99v1.71l2.42,1.3c1.3.71,2.74,1.28,3.18,1.28,1.17,0,2.09.57,2.61,1.6.68,1.36,2.8,2.14,6.73,2.47,6.73.57,9.66,1.6,13.35,4.67.92.76,1.33.98,1.44.71.05-.19.38-1.36.68-2.61s.81-2.88,1.11-3.66c1.44-3.53,2.42-6.35,2.42-6.84,0-.3.38-1.52.84-2.71,1.09-2.82,1.25-3.42,1.74-5.78l.41-1.98-.95-1.11c-1.22-1.47-2.01-3.56-2.36-6.43-.35-3.01-.16-5.46.73-8.96.65-2.63,1.28-4.18,2.25-5.67.27-.41.41-1.38.43-3.01.03-2.33.05-2.44,1.11-3.99.6-.87,2.82-3.34,4.94-5.46,7.65-7.68,10.59-12.21,11.75-18.08.33-1.6,1.22-4.78,2.01-7.06s1.6-4.8,1.79-5.62.62-2.01.98-2.61l.65-1.14-1.71-.71c-.92-.38-3.01-1.09-4.64-1.52-3.23-.92-7.08-2.47-10.12-4.1l-1.98-1.06-.16.68c-.35,1.47-2.42,4.07-6,7.68-2.39,2.39-4.13,4.37-4.78,5.48-.57.98-1.95,3.28-3.07,5.16-1.09,1.87-2.01,3.47-2.01,3.61,0,.11.6,1.14,1.3,2.31,2.82,4.48,3.31,5.56,3.31,7.14,0,.81-.22,1.93-.52,2.55-.52,1.14-2.31,2.93-3.42,3.45-.68.3-1.09,1.11-1.33,2.66-.22,1.3-1.09,2.61-2.12,3.26-.68.41-1.38.54-2.99.54-1.95,0-2.17-.05-3.07-.84-.52-.46-.95-1-.95-1.22,0-.24-.33-.38-1-.38-.73,0-1.44-.3-2.55-1.09-.87-.6-1.87-1.09-2.28-1.09-1.06,0-1.76-.49-2.2-1.52-.24-.6-.71-1.06-1.28-1.28-1.33-.57-1.63-1.38-1.49-4.18.22-3.61,1-5.1,5.02-9.23,2.47-2.52,3.45-3.37,4.29-3.61,1.06-.3,1.14-.43,2.9-4.02,1.76-3.56,2.61-5.43,5.29-11.7,1.85-4.32,5.24-9.85,8.09-13.19.76-.9,1.85-2.23,2.42-2.93.57-.73,1.52-1.63,2.09-2.01,1.03-.68,1.17-.71,3.85-.52,1.52.11,4.04.49,5.62.87s3.34.79,3.94.9c1.03.22,5.62,1.74,9.77,3.23,1.06.38,2.77,1.09,3.8,1.57,2.55,1.17,3.75,1.47,5.84,1.47,2.36,0,4.99.46,6.22,1.06.57.3,1.93.57,3.31.68l2.31.19,2.33-2.25c2.93-2.85,3.77-4.42,3.96-7.33l.14-2.12h-.95c-.52,0-1.03-.11-1.19-.27-.43-.43-1.47,0-1.47.65,0,.73-.76,1.95-1.9,3.07-1.03,1-2.52,1.33-4.51,1.03-1.49-.22-1.85-.87-1.68-3.23.11-1.38.24-1.71.98-2.36.87-.79,3.91-1.87,5.21-1.87,1.06,0,1.28-.46.35-.68-2.09-.46-5.32-3.94-7.11-7.6-1-2.06-1.25-2.74-1.93-5.48-.24-1.03-.38-1.17-1.25-1.33-.52-.08-1.14-.35-1.36-.57-.33-.35-.73-.03-3.31,2.55-6.3,6.41-8.96,7.65-16.34,7.68-3.5,0-6.68-.49-9.07-1.36-2.01-.76-5.1-2.52-6.6-3.75-1.06-.84-1.17-1.06-1.17-2.12s-.14-1.33-1.06-2.14c-.57-.52-1.22-1.36-1.41-1.85-.19-.46-.76-1.41-1.25-2.06-.76-1-.9-1.41-.9-2.63v-1.47h1.19c1.06,0,1.3.11,1.82.84.81,1.14,4.34,3.42,6.08,3.91,1.25.38,1.63.38,3.69-.03,4.29-.81,6.24-2.06,9.99-6.32,1.17-1.36,1.93-1.9,4.04-2.96l2.58-1.28h3.83c4.21,0,4.99.22,7.65,2.04,1.06.73,1.3.81,1.6.52.22-.22.68-1.85,1.03-3.64,1.33-6.43,3.34-10.15,7.76-14.25,2.25-2.12,2.9-2.58,5.65-3.8,1.68-.76,4.51-1.79,6.27-2.25,3.04-.81,3.42-.84,8.47-.84,4.32-.03,5.65.08,7.19.49,4.99,1.3,8.82,4.37,8.82,7.03,0,.46.49,1.25,1.38,2.28,3.34,3.77,4.83,6.98,5.08,10.99.16,2.99-.05,3.34-1.87,3.12-1.14-.14-1.33-.08-1.71.49-.3.46-.79.71-1.63.81-1.74.27-2.55,0-4.64-1.52-1.71-1.22-1.87-1.3-2.31-.92-.35.3-.9.41-1.79.35l-1.33-.08-.08-1.3c-.11-1.55.19-1.98,1.71-2.66,1.95-.9,4.02-.46,6.05,1.25.68.57.98.68,1.22.43.16-.16.81-.3,1.47-.3h1.17l-.43-1.14c-.95-2.47-2.82-6.11-3.61-6.95-.46-.49-.84-1.14-.84-1.41,0-1.09-.3-1.36-1.52-1.36-.65,0-1.19.14-1.19.27,0,.54-1.87.3-2.5-.35l-.62-.6-.08.6c-.08.52-.27.62-1.14.62-.57,0-1.14-.11-1.22-.27-.35-.54-.65-.24-.73.73-.08,1-.11,1.03-1.33,1.11-.95.05-1.33-.05-1.74-.49-.57-.65-.95-.71-.95-.14,0,.22-.24.41-.54.41-.46,0-.54.19-.54,1.3s-.14,1.41-1.33,2.71c-2.17,2.31-2.47,3.42-2.47,9.64-.03,5.13-.03,5.24-.76,6.7-.6,1.14-1,1.6-1.87,2.04-.62.3-1.14.73-1.17.98,0,.54-.54.79-1.66.79-.71,0-.79.08-.79.9,0,1.19-.41,1.55-1.79,1.55-1,0-1.19-.11-1.85-1.03-.38-.57-1.06-1.38-1.52-1.82l-.79-.73-.19.98c-.33,1.79,1.33,6.05,2.82,7.25.65.52.68.52,1.57-.05.62-.38,1.25-.52,2.06-.46l1.17.08.08,1.33c.11,1.55-.35,2.2-1.9,2.66-1.22.35-1.22.38-.46,3.96.76,3.53.84,3.64,1.63,2.2.6-1.11.76-1.19,1.74-1.19,1.03,0,1.09.05,1.17.9.05.65.22.87.62.87,1.19,0,.27,4.15-1.09,4.89-.76.41-3.01.35-3.01-.05,0-.76-.54.49-.54,1.28,0,1.09-1.41,4.02-2.74,5.7-.57.76-1.74,1.85-2.55,2.44-1.17.84-1.47,1.19-1.33,1.63.71,2.47,1.49,6.24,1.87,8.96.95,7.17,1.25,8.69,1.98,10.18.41.81.87,1.52,1.06,1.57.95.27,2.63-5.32,2.93-9.77l.16-2.36-1.03-.08q-1.03-.08-1.11-1.36c-.05-.95.11-1.63.62-2.66,1.44-2.88,5.32-7.79,6.7-8.52l.92-.52-1.3-1.3c-1.25-1.25-1.3-1.38-1.3-2.82v-1.49h1.11c.9,0,1.33.19,2.28,1.03,2.85,2.5,9.04,5.29,13.19,5.97,2.44.41,2.69.38,3.34-.03.79-.52,1.63-2.01,1.93-3.45.3-1.36,1.68-4.37,2.36-5.08l.57-.6-.79.22c-.43.14-1.47.49-2.28.79-2.42.87-5.35,1.28-6.7.9-2.14-.6-2.74-1.87-2.39-5.13.19-1.71.27-1.9,1.47-3.07,1.93-1.95,3.12-2.25,9.5-2.28,6.19-.05,6.16-.03,5.35-2.36-.3-.79-.73-1.66-1.03-1.93-.57-.57-.68-2.61-.16-3.12.19-.19,1-.33,1.82-.33s2.33-.27,3.37-.6c2.69-.87,4.59-2.93,2.69-2.93-.9,0-3.26-.76-4.8-1.57-2.42-1.22-4.23-4.26-4.42-7.3l-.11-1.71h1.22c1.19,0,1.28.05,1.98,1.3,1.85,3.18,3.5,4.37,7.65,5.48,2.77.73,3.04,1.14,3.04,4.29,0,1.95-.08,2.25-.84,3.28-.92,1.3-3.99,2.96-5.94,3.2l-1.09.16.08,3.23.05,3.26-.76.65c-.9.76-2.44.84-6.16.35-3.94-.54-7.84.49-8.85,2.33-.27.52-.43,1-.35,1.09.08.08,1.49-.3,3.12-.81,2.42-.76,3.37-.95,5.27-.95,1.28,0,2.8.14,3.37.27,1.63.38,1.93.81,1.93,3.01,0,1.79-.05,1.95-.79,2.55-.43.35-1.14.73-1.6.87-.76.22-.87.38-1.44,2.69-.73,3.01-1.36,4.26-2.88,5.73s-2.23,1.71-4.94,1.71-5.75-.73-9.31-2.2l-2.55-1.09-.81.57c-.43.33-.79.68-.79.81s-.22.3-.49.38c-.27.11-1.41,1.3-2.52,2.69l-2.04,2.5.92.62c.49.33,1.3.6,1.79.6,1.17,0,3.85,1.79,5.4,3.64.65.76,1.63,2.31,2.14,3.42.81,1.76,1.28,2.33,3.23,4.07,4.45,3.94,6.62,6.38,10.59,11.89l.81,1.17,1.68-1.55c1.63-1.52,6.27-4.72,6.84-4.72.14,0,.65-.19,1.09-.43.46-.24,2.12-1,3.72-1.74,4.37-1.95,9.72-5.97,9.72-7.27,0-.24-.19-1.19-.41-2.09-.52-2.17-.52-5.16.03-6.73.49-1.44,1.87-2.77,3.39-3.2l.98-.3-.38-2.09c-.22-1.14-.49-2.74-.62-3.56-.16-.81-.27-2.8-.27-4.4,0-2.66.05-2.96.62-3.47,1.36-1.3,4.53-2.44,8.98-3.26,1.85-.35,7.93-.24,8.93.16.6.22,1.38,2.8,2.23,7.38.98,5.29.87,4.94,1.66,4.94,2.09,0,3.91,2.28,3.91,4.89,0,.68.19,1.17.57,1.52,1.11,1,1.41,1.95,1.22,3.88-.22,2.2-.22,2.39,0,4.83.14,1.44.05,2.14-.24,2.74-.24.54-.3.95-.14,1.25.14.24.16,1.3.05,2.36-.16,1.74-.27,1.95-1.14,2.69l-.95.79.05,2.12c.08,3.31-.54,4.42-3.31,5.81-2.5,1.28-4.53,1.71-8.33,1.71-4.64.03-5.81-.3-7.33-2.06-1.03-1.19-1.19-1.57-1.33-3.01-.14-1.47-.24-1.68-.84-1.85-1.52-.43-2.39-.27-2.96.52-.3.43-2.09,2.04-3.99,3.61-1.9,1.55-4.37,3.66-5.51,4.67-3.42,3.09-9.34,6.92-14.82,9.64-1.66.81-2.09.92-3.53.81-2.52-.16-3.56-.79-10.91-6.6-2.69-2.14-4.42-3.83-8.36-8.12l-2.71-2.96.08,2.77c.14,3.83-.49,5.67-2.5,7.57-1.63,1.55-2.9,2.25-5.18,2.9-3.26.9-3.72,1.19-5.24,3.07-.79,1-2.42,2.93-3.61,4.26-1.55,1.76-2.33,2.93-2.82,4.18-.35.98-.62,1.79-.57,1.85.05.08,1.25-.03,2.63-.19,1.41-.16,3.66-.41,4.99-.57,1.36-.16,3.42-.38,4.61-.52,4.91-.57,10.42-.84,15.25-.76,4.67.08,5.21.14,6.51.73,1.71.76,3.18,2.31,3.61,3.75.79,2.74.6,6.46-.54,10.8-.3,1.09-.57,3.47-.68,5.56-.22,4.04-.6,7-1.6,12.35-1.03,5.48-1.38,8.85-1,9.91.16.49.3,1.44.3,2.06v1.19h1.33c1.06,0,1.44.14,2.04.71.6.6.71.98.71,2.17q0,1.47.84,1.47c.46,0,1.03.11,1.28.24.6.33,5.48-.49,5.97-.98.19-.19.71-.35,1.14-.35,1.17,0,1.98-.38,4.13-2.01,3.61-2.69,6.81-3.96,9.91-3.96,2.33,0,3.75.57,4.8,1.98,1.63,2.14,1.9,4.29.98,7.95-.49,1.93-.68,2.25-1.76,3.18-1,.87-1.22,1.22-1.22,1.98,0,1.28-1.19,2.58-2.58,2.8-.9.14-1.09.3-1.41,1.25-.6,1.76-2.31,2.85-4.48,2.85-.57,0-.87.22-1.19.84-.81,1.6-1.66,2.14-3.31,2.14-1.19,0-1.66.14-2.17.62-.57.54-.98.62-4.21.73-3.8.16-4.4.35-5.16,1.6-.71,1.14-2.42,2.85-3.47,3.5-.57.35-1.44.6-2.09.6s-1.33.19-1.71.54c-.81.65-.27.73,1.33.16.62-.22,2.61-.54,4.45-.71,2.09-.22,4.23-.6,5.78-1.09,1.36-.41,3.31-.95,4.4-1.19,3.07-.65,7.11-2.39,10.31-4.4,4.21-2.66,7.6-4.32,9.91-4.86,1.09-.24,3.09-1,4.45-1.66,1.55-.76,2.82-1.19,3.45-1.19.95,0,1,.05,1,.87,0,.65-.24,1.11-1.06,1.85-1.44,1.33-5.13,3.15-7.71,3.77-1.19.3-2.33.71-2.58.92-.27.22-1.19.81-2.09,1.3-.9.49-2.42,1.47-3.39,2.12-.98.65-2.63,1.6-3.69,2.09-2.33,1.06-6.92,2.55-7.84,2.55-.38,0-1.85.38-3.31.84-2.09.68-3.37.9-6.19,1.06-3.09.19-4.04.38-7.08,1.36-5.65,1.85-6.95,2.5-9.91,4.94-1.06.87-1.47,1.03-2.5,1.03-1.33,0-1.55-.24-1.55-1.66v-.79l-1,.49c-.57.3-1.68.73-2.47.98-.79.27-2.14.95-3.01,1.55-1.41.95-1.76,1.06-3.23,1.06-.9,0-1.95-.11-2.33-.27-.57-.22-.76-.14-1.3.52-.87,1-1.68,1.44-5.81,2.99-1.95.76-4.29,1.68-5.16,2.06-.87.41-3.18,1.38-5.13,2.17-1.93.79-4.29,1.76-5.21,2.14-.98.41-2.23.71-2.93.71h-1.25l.08-1.14Zm45.49-22.39q.38-.62-.79-.62c-1.71,0-2.17.38-1.17.92.98.54,1.44.46,1.95-.3h0Zm9.55-3.53l.68-.71-1.36.76c-1.71.95-1.82,1.06-.81.84.46-.11,1.11-.52,1.49-.9Zm-77.66-2.42c.76-.3,1.47-.95,2.44-2.25.76-1.03,2.2-2.74,3.23-3.85,2.14-2.31,5.16-6.43,6.46-8.79.46-.9,1.63-2.85,2.52-4.34l1.68-2.71-1.57-.19c-.87-.11-2.12-.41-2.8-.65-1.79-.65-6.43-3.01-7.82-3.96-.65-.43-1.25-.76-1.33-.68-.05.08-.24.54-.35,1.06-.14.49-.71,2.12-1.3,3.61-.95,2.42-1.55,4.56-2.5,9.26-.16.73-.54,1.76-.84,2.25-.49.79-.62.87-1.66.79-1.09-.08-1.19-.16-2.12-1.74-1.52-2.63-2.44-3.64-4.59-5.05-2.44-1.6-5.46-2.44-11.48-3.2-1.17-.14-3.01-.6-4.1-1.03l-1.98-.76-.73.92c-.41.54-.73,1.17-.73,1.41,0,.27-.08.81-.16,1.25-.14.73-.05.84,1.03,1.36,1.47.73,5.35,3.2,8.25,5.29,1.22.87,3.01,2.06,4.02,2.61.98.57,2.85,1.79,4.18,2.74,5.48,3.91,9.45,6.65,9.96,6.84.79.35,1.09.33,2.28-.16h0Zm-64.03-.43c.79-.54,3.45-3.96,3.2-4.13-.05-.05-.65-.03-1.36.05-1.17.11-1.25.16-1.44,1.03-.14.76-.27.92-.81.92-.57,0-.68.14-.68.76,0,.41-.08,1-.16,1.36-.11.33-.05.6.08.6.16,0,.68-.27,1.17-.6Zm139.79-.9c1.71-1.14,1.9-1.33,1.9-2.14,0-1.33.71-3.39,1.38-4.13l.6-.65h-.73c-.43,0-.98-.27-1.36-.68-.92-1-2.28-.92-3.8.24-1.87,1.41-3.47,1.93-6.13,1.93-1.85,0-2.5-.11-3.26-.57l-.95-.54.08,1,.11,1.03,1.52.16c2.14.24,3.23.6,4.75,1.55,1.38.9,3.45,3.07,3.45,3.64s.41.46,2.44-.84Zm16.18-5.54l2.93-1.3-.08-1.49c-.05-1.28.08-1.76,1.03-3.58.76-1.49.95-2.04.62-1.87-.24.11-1.55.22-2.9.22h-2.44l-.33.95c-.19.52-.33,1.28-.33,1.68-.03,1.33-.57,2.12-1.44,2.12-.68,0-.73.05-.49.52.14.3.27,1.33.27,2.31s.05,1.79.11,1.79,1.44-.6,3.04-1.33h0Zm-154.07-1.93c0-.95.95-1.63,2.31-1.63h1.22l-.54-.87c-.98-1.6-.49-3.75.87-3.75.38,0,.49-.22.49-1.11,0-1.38.41-2.14,1.17-2.2.33,0,.05-.11-.62-.19-1-.14-1.33-.35-2.06-1.3l-.87-1.14-.92,1c-.52.57-1.3,1.57-1.76,2.25l-.84,1.22.79.87c.92,1.03,1,2.01.35,4.72-.43,1.79-.38,2.66.16,2.66.14,0,.27-.24.27-.54h0Zm131.19-1.6c2.17-.71,3.5-1.66,3.34-2.33-.46-1.85-.46-3.58-.03-4.75.35-1,.57-3.72.3-3.99-.03-.03-.71.16-1.47.46-.81.3-2.09.54-2.93.54h-1.52l.16.76c.46,1.95.49,5.65.05,7.38-.43,1.66-.43,1.76.03,2.09.54.43.24.43,2.06-.16h0Zm32.08-8.69c.22-.43.68-.84,1-.9s.62-.24.71-.46c.16-.49-1.03-.22-2.5.6-1.28.71-1.52,1.19-.65,1.36.35.05.71.14.81.16.11,0,.38-.33.62-.76Zm-144.68-.57c-.43-.43-.84-.76-.92-.68-.05.08.22.52.65.95.43.43.84.76.92.68.05-.08-.22-.52-.65-.95Zm11.05-4.13l.68-1.22-1.79-.92c-.98-.49-2.69-1.52-3.77-2.25-1.95-1.3-1.98-1.33-2.52-.81-1,.9-1.6,2.42-1.6,4.04,0,1.14.08,1.49.41,1.49.22,0,.87.43,1.47.95,1.09.98,2.63,1.76,3.5,1.76.3,0,.92.27,1.44.62l.92.62.3-1.52c.16-.87.6-2.09.98-2.77Zm-20.96,3.04c0-.43-.11-.81-.27-.81-.14,0-.27.38-.27.81,0,.46.14.81.27.81.16,0,.27-.35.27-.81Zm4.34-3.37c.46-.6,2.93-.6,3.15-.03.38,1,.65.24.65-1.87,0-2.47.35-3.64,1.52-5.02.79-.95,2.5-1.93,3.34-1.93.9,0,.87-.41-.11-1.17l-.92-.73-1.68,1.28-1.66,1.3h-7l-.68,1.76-.68,1.76.92,1.36c1.36,2.01,1.52,2.42,1.52,3.77,0,.92.11,1.25.41,1.25.22,0,.43.16.43.35.03.16.14-.14.22-.68.11-.54.35-1.19.57-1.41h0Zm119.11-.68c1.09-.41,2.09-.87,2.25-1.03.14-.14.38-1.93.52-3.94.14-2.04.57-5.32.92-7.3.87-4.7,1.14-6.79,1.66-11.92.24-2.31.62-5.18.84-6.38.22-1.19.49-3.12.57-4.26.14-1.95.11-2.17-.54-3.01-.49-.62-1.22-1.11-2.33-1.55-1.57-.57-1.93-.6-7.55-.46-5.92.11-11.83.68-15.42,1.44-1.03.22-2.17.38-2.47.38-1.41,0-3.34,4.7-3.96,9.69-.35,2.85.05,6.24.76,6.51.92.35,8.77-2.5,13.82-4.99,4.56-2.28,6.65-3.07,8.14-3.07h1.22v1.22c0,.84-.24,1.68-.84,2.77-.46.84-1.09,2.14-1.36,2.9-.73,1.79-1.57,6.11-1.41,7.11.33,2.06.79,3.75,1.87,6.68,1.17,3.12,1.19,3.23,1.19,6.6,0,1.87.03,3.39.08,3.39.03,0,.95-.35,2.04-.79h0Zm-125.65-8.31c.46-1.19.84-2.17.84-2.23,0-.03-.35.14-.79.35-.81.41-1.38,1.9-1.38,3.66,0,1.25.35.76,1.33-1.79Zm3.85-6.24c.65-.6,1.76-1.38,2.5-1.76,1.41-.76,1.6-1.09.62-1.09-.35,0-1.74.81-3.18,1.85l-2.55,1.85-.08,1.36-.08,1.33.79-1.22c.43-.68,1.33-1.71,1.98-2.31Zm81.4-11.67c3.07-.65,5.81-1.25,6.11-1.3.35-.08.27-.14-.27-.16-.43,0-1.57.16-2.5.38-2.71.62-7.52,1-12.02.9-4.83-.08-5.35-.3-6.7-2.61-.68-1.17-.76-1.52-.76-3.94,0-2.2-.05-2.55-.35-2.17-1,1.38-1.14,4.32-.24,6.05.68,1.38,2.63,2.82,4.34,3.26.62.16,1.44.46,1.82.71,1,.6,4.04.3,10.59-1.11Zm5.81-14.28c2.39-.54,2.71-.68,3.18-1.44.27-.46.65-1.49.81-2.33.16-.81.46-1.9.68-2.39.43-1.06,4.78-6.35,6.27-7.68.57-.49,1.36-1.33,1.74-1.87.76-1.03,1.17-1.25,3.91-2.04,1.74-.52,4.7-2.31,5.86-3.58.41-.41.87-1.22,1.06-1.79.33-1.03.3-1.33-.43-9.09l-.16-1.44-.81,1.3c-1.11,1.82-1.41,1.98-3.47,1.98-1.52,0-1.98-.11-3.07-.81-2.14-1.36-3.15-4.13-3.72-10.45-.16-1.79-.38-4.04-.49-5.02l-.22-1.76-.19,2.17c-.3,3.37-.84,5.48-2.23,8.74-.95,2.31-1.57,3.34-2.58,4.4-1.47,1.52-3.64,3.01-4.4,3.01-1,0-2.58,1.03-2.96,1.95-.19.49-.81,1.66-1.36,2.55-.57.92-2.17,4.02-3.61,6.87-2.9,5.81-3.5,6.79-7.08,11.83-2.28,3.2-3.94,5.97-3.94,6.6,0,.14,2.61.3,5.78.38,4.48.11,5.92.22,6.54.54.57.3,1.03.35,1.49.19.41-.11,1.9-.49,3.39-.81Zm-20.41-1.74c.27-.9.95-2.58,1.52-3.72.65-1.36.84-1.93.52-1.66-1,.92-3.42,4.32-3.96,5.56-.57,1.36-.46,1.6.79,1.49.54-.05.73-.3,1.14-1.68h0Zm-4.91-2.01c.76-2.06,1.68-3.31,5.05-6.68,3.2-3.23,5.13-5.59,6.65-8.14,1.57-2.63,3.77-7.57,4.94-11.21l.49-1.41-.84-1.14q-.81-1.11-1.06-.46c-.14.35-.46,1.76-.73,3.09-1.06,5.62-2.25,8.66-4.61,11.89-.68.92-1.74,2.42-2.36,3.31-.62.9-3.04,3.58-5.35,5.97-2.33,2.39-4.45,4.75-4.72,5.24l-.49.87,1.17.54c1.09.49,1.17.49,1.25.05.05-.24.33-1.11.62-1.93h0Zm-22.88-10.42c.76-1.14.76-1.28-.08-1.28-.62,0-.68-.08-.68-1.33,0-.76.11-1.41.24-1.49.14-.11.76-1.09,1.38-2.23l1.11-2.04,1.11.08c1,.08,1.17.19,1.41.98.27.81.33.84.62.35.3-.46.11-.87-1.41-3.07-2.33-3.34-2.8-4.4-3.01-6.65-.16-1.82-.16-1.93.9-3.77,4.75-8.33,5.97-10.04,9.58-13.73,2.44-2.47,3.5-3.8,4.89-6.08.95-1.63,1.95-3.15,2.23-3.42.73-.73,2.2-.62,3.09.19.41.38.92.68,1.17.68s.92.24,1.49.57c1.9,1,6.49,2.88,9.26,3.77,4.86,1.55,6.46,2.17,9.5,3.75,2.61,1.38,3.07,1.71,3.8,2.88.71,1.17.81,1.66.92,3.61.05,1.41-.05,2.58-.24,3.07-.3.73-.46.81-1.49.81-1.28,0-1.49-.3-1.49-2.23,0-.54-.27-1.44-.6-2.01l-.57-.98-.33.62c-.19.35-.68,1.66-1.09,2.88-.76,2.2-.76,2.23-.3,3.66.57,1.71,1.28,2.55,2.74,3.23,1.55.71,2.47.62,3.96-.3,3.12-2.01,5.65-6.13,6.79-11.02.46-2.06.57-3.09.43-5.21-.16-3.23-.3-3.58-1.33-3.58-.46,0-1.09-.27-1.49-.65-.38-.35-1.38-1-2.23-1.41-1.38-.71-1.87-.79-5.18-.92-3.07-.14-3.88-.24-5.02-.79-1.63-.76-9.61-3.64-15.12-5.46-4.13-1.36-7.36-2.01-8.12-1.6-.6.3-3.61,3.75-5.62,6.38-.92,1.22-2.5,3.72-3.53,5.56-1,1.85-2.04,3.66-2.28,4.04s-1.14,2.33-2.01,4.34c-.84,2.01-1.66,3.72-1.76,3.8s-.43.79-.73,1.57c-.52,1.33-3.15,6.13-3.94,7.14-.19.24-.95.76-1.74,1.14-.81.43-1.79,1.25-2.42,2.01-.57.71-1.79,2.09-2.74,3.07-1.28,1.33-1.82,2.14-2.2,3.31l-.52,1.55.87.3c1.09.35,1.68,1,1.82,1.9.05.57.24.71,1.06.76.71.05,1.25.35,1.9,1.03.79.81,1.06.92,2.31.92s1.52.11,1.93.71c1.36,1.95,1.74,2.04,2.74.57h0Zm98.34.05c1.3-.46,8.79-5.35,12.38-8.12,1.71-1.3,5.75-4.64,7.27-6.03.46-.38,1.33-1.11,1.95-1.63.62-.49,1.68-1.36,2.36-1.95,1.14-.95,1.47-1.06,3.31-1.25,1.11-.11,2.09-.24,2.14-.33.08-.05-.05-1.14-.27-2.42-.19-1.25-.52-3.42-.71-4.78-.22-1.63-.43-2.52-.65-2.52-.19,0-.65-.27-1.06-.57-.62-.49-.73-.73-.65-1.85l.08-1.25h2.58c2.23,0,2.71-.08,3.61-.62.54-.35,1-.76,1-.87,0-.14-.79-.19-1.76-.08-1.11.11-2.2.03-3.01-.19l-1.3-.38-.87,1.03c-1.03,1.19-1.14,1.66-.87,3.56.41,2.88.54,4.99.38,5.92-.22,1.22-2.01,3.23-4.45,5.02-2.04,1.49-2.28,1.63-6.3,3.56-6.46,3.09-12.27,6.84-13.65,8.79-.68.95-.81,1-2.23,1-1.3,0-1.49-.08-1.49-.52,0-.3-.41-.87-.92-1.3-.52-.41-1.95-1.98-3.2-3.47-1.25-1.49-2.63-3.15-3.07-3.66-1.52-1.76-4.07-4.21-5.51-5.29-1.06-.79-1.82-1.71-2.8-3.34-.73-1.25-1.33-2.36-1.33-2.47,0-.46-1.63-2.42-2.88-3.47l-1.33-1.11-.05,6.08-.05,6.05.84.16c.6.14,2.14,1.52,5.54,4.94,2.61,2.61,5.48,5.35,6.41,6.08.92.76,1.93,1.6,2.23,1.87,2.23,2.09,6.79,5.7,7.22,5.7.11,0,.6-.14,1.11-.3h0Zm-54.86-15.5c0-.14-.11-.22-.24-.22-.22,0-.84,1.41-.84,1.87,0,.24,1.09-1.44,1.09-1.66Zm90.5-2.04c.08-1.93.35-4.56.54-5.92.22-1.33.35-2.5.3-2.52-.05-.05-.84-.16-1.74-.24-1.52-.14-1.66-.22-1.66-.79,0-.49-.14-.65-.62-.65h-.65l.92,5.65c.52,3.09.98,6,1.06,6.46.11.73.76,1.36,1.49,1.44.08.03.24-1.52.35-3.42Zm12.92-3.75c.27-.33.08-.27-.62.14-.54.33-1.09.71-1.17.87-.27.41,1.38-.52,1.79-1h0Zm-.87-4.04c1.09-.68,2.2-1.79,1.79-1.79-.49.03-3.47,1.76-3.58,2.12-.16.52.68.38,1.79-.33Zm-9.58-4.29c.92-.62,1.19-1.03.68-1.03-.3,0-2.14,1.6-1.82,1.63.11,0,.62-.27,1.14-.6Zm9.15-.79c1.14-.73,2.39-2.06,2.39-2.52,0-.19-3.85,1.71-4.4,2.23-.38.3-.41.49-.19.79.43.52.73.46,2.2-.49h0Zm-2.14-4.75c1.76-.9,3.09-2.61,2.61-3.39-.19-.3-.24-.3-.24.11,0,.33-.43.68-1.28,1.03-1.55.65-2.52,1.52-2.52,2.2,0,.6.33.62,1.44.05Zm-2.31-4.64c.54-.27,1.03-.49,1.09-.52.14-.05-1-5.05-1.47-6.46-.41-1.19-.49-1.28-.87-.87-.3.3-.49,1.28-.62,3.61-.14,1.76-.35,3.85-.49,4.67-.43,2.23-.38,2.39.52,1.14.46-.62,1.28-1.33,1.85-1.57Zm-79.97-40.2c-.68-.19-1.14.19-1.14.92v.73l.76-.79c.49-.54.62-.81.38-.87h0Zm4.15-1.71c.22-1.55.14-1.74-.65-1.47-.46.14-.57.41-.57,1.36,0,.68-.14,1.22-.33,1.3s.03.16.52.16c.81.03.84-.03,1.03-1.36h0Zm6.11-6.62c0-2.12.43-4.67.87-5.21.22-.24.05-.27-.65-.03-.49.19-1.55.33-2.31.33-.95.03-1.44.14-1.44.35,0,.19-.33.54-.71.79-.6.41-.62.52-.27.71.24.14.43.54.43.9,0,.62.11.68,1.33.68,2.12,0,2.2.08,2.2,2.09,0,1.09.11,1.68.27,1.57.16-.08.27-1.06.27-2.17h0Zm-9.5-4.21c0-.41-.14-.33-.71.3q-.52.6.11.27c.33-.16.6-.43.6-.57Zm7.46-5.56c.9-.22,2.2-.41,2.9-.41,1.14,0,1.3-.08,1.3-.57,0-.46-.11-.54-.6-.41-.35.11-1.44.27-2.44.35l-1.85.16v-1.03c0-.81-.08-.98-.43-.84-.24.08-.73.24-1.09.33-.43.11-.65.35-.65.79,0,.33-.24.81-.54,1.09s-.54.84-.54,1.25v.76l1.17-.52c.65-.3,1.9-.71,2.77-.95Zm6.65-7.46c0-.3-.84-.3-2.04,0-.71.19-.6.22.62.24.79,0,1.41-.08,1.41-.24Z"/>
    <path id="path8" class="cls-1" d="m296.28,109.8c-2.77-.9-3.72-1.82-3.61-3.47.08-1.06.14-1.14.98-1.22.52-.05,1.44.19,2.31.57,2.01.95,3.61,1.33,5.35,1.28.81-.03,2.36-.08,3.39-.08l1.9-.05.08,1.11c.08,1-.03,1.19-.79,1.76-.79.57-1.25.65-4.18.71-2.88.08-3.5,0-5.43-.6h0Z"/>
    <path id="path9" class="cls-1" d="m135.86,205.34c-2.28-.57-4.94-.92-9.64-1.25-2.47-.16-5.08-.41-5.84-.54-1.55-.3-4.91-1.82-5.67-2.55-.6-.62-2.71-.95-4.78-.76-1.3.11-1.71.03-3.04-.71l-1.55-.84-1.95.41c-1.06.22-2.06.49-2.23.6s-2.17.27-4.48.38c-2.47.11-4.29.3-4.48.49-.43.43-5.18.35-7.25-.14-1.63-.38-5.54-2.36-9.09-4.61-2.47-1.55-6.92-3.64-8.12-3.8-.84-.14-1.74,0-3.18.46-1.22.38-2.71.62-3.77.65h-1.76v-1.06c0-1.25-.03-1.25,3.56-2.2,2.36-.65,3.09-.73,5.43-.62,3.34.14,5.16.87,10.75,4.21,2.14,1.3,4.91,2.82,6.16,3.42,2.17,1,2.33,1.06,4.34.92,7.22-.52,9.12-.73,11.62-1.38,3.69-.95,6.16-.95,7.52-.03.79.54,1.33.68,2.58.68,2.44,0,4.23.43,5.81,1.44,1.38.87,3.01,1.63,4.21,1.95.35.11,3.64.46,7.33.81,5.81.54,7.06.73,9.36,1.49l2.63.87v2.12l-1.55-.03c-.87-.03-2.17-.19-2.93-.38h0Z"/>
    <path id="path10" class="cls-1" d="m300.84,200.81c-.46-.35-1.25-1.22-1.74-1.95-.81-1.17-.92-1.57-1.03-3.42-.08-1.95-.03-2.14.49-2.44.33-.16.98-.27,1.47-.22.73.08.9.22,1.09,1.03.6,2.47.79,2.93,1.82,4.29.79,1.03,1.09,1.68,1.09,2.36,0,.92-.03.95-1.17.95-.76,0-1.44-.22-2.01-.6h0Z"/>
    <path id="path11" class="cls-1" d="m15.47,199.83v-1.09l1.44-.19c.76-.11,3.01-.68,4.94-1.28,5.62-1.68,5.94-1.76,11.81-3.23,3.07-.76,7-1.85,8.77-2.44,6.05-2.01,10.34-2.61,13.08-1.76,1.03.3,1.09.38,1.09,1.38v1.09l-2.06-.08c-2.31-.08-6.51.79-9.47,1.98-.98.38-3.18,1.09-4.89,1.55-3.26.84-3.91,1-10.18,2.52-2.09.52-4.89,1.25-6.24,1.63-1.55.43-3.5.76-5.35.87l-2.93.16v-1.11Z"/>
    <path id="path12" class="cls-1" d="m309.31,198.23c-2.55-1.33-3.2-2.9-3.09-7.33.08-2.63.22-3.37.68-4.15.49-.87.65-.95,1.76-.95s1.19.05,1.28.79c.05.43-.11,1.52-.35,2.39-.68,2.44-.16,4.48,1.66,6.54.73.79.92,1.25.92,2.09q0,1.09-1,1.09c-.57-.03-1.38-.22-1.85-.46h0Z"/>
    <path id="path13" class="cls-1" d="m164.36,197.61c-.79-.33-2.23-1.9-2.55-2.8-.16-.43-.3-1.85-.3-3.15,0-2.74.33-3.28,1.98-3.28h1v1.76c0,2.28.46,3.34,2.01,4.61,1.09.9,1.25,1.14,1.25,2.06v1.06l-1.41-.03c-.79,0-1.68-.11-1.98-.24h0Z"/>
    <path id="path14" class="cls-1" d="m173.75,195.38c-1.85-1.82-2.74-4.59-2.74-8.5,0-3.01.52-5.27,1.38-6.13.35-.35.9-.52,1.74-.52h1.22v1.09c0,.62-.16,1.44-.38,1.85-1.57,3.12-.76,8.14,1.71,10.48.62.6.84,1.06.84,1.71v.9h-1.44c-1.25,0-1.55-.11-2.33-.87h0Z"/>
    <path id="path15" class="cls-1" d="m379.74,184.96c0-.57.24-1.3.62-1.82.35-.49.9-1.52,1.22-2.31.73-1.85,3.37-6.51,4.51-7.98.46-.65,1.57-2.23,2.44-3.53,1.57-2.42,2.09-2.8,3.45-2.61.57.08.65.24.73,1.49.05.79-.05,1.71-.24,2.04-.19.33-.41,1-.54,1.49-.16.81-.14.9.43.9,1.68,0,1.85.76.92,3.85-.3,1.06-.52,1.93-.46,1.98.05.05,1.74-.79,3.75-1.87,3.31-1.79,3.94-2.25,6.38-4.75,2.2-2.23,2.88-2.74,3.5-2.74.57,0,1.03-.3,1.85-1.22.92-1.06,1.22-1.22,2.14-1.22.98,0,1.06.05,1.06.76v.73l.52-.81c.3-.43.81-1.36,1.17-2.04.6-1.14.71-1.22,1.71-1.22h1.09l.08,1.22c.05.87-.14,1.71-.62,2.8l-.68,1.57.6-.16c.35-.11,1.49-.68,2.52-1.25,1.76-.98,1.85-1.06,1.03-1.06h-.9v-1.68c0-1.25.16-1.95.54-2.61.49-.79.68-.9,1.57-.81l1,.08-.08,1.98c-.05,1.06.03,1.95.16,1.95s1.19-1.14,2.36-2.5c1.44-1.71,2.5-3.31,3.28-4.97,1.38-2.9,3.42-8.9,4.04-11.94.6-2.8.87-3.18,2.23-3.07l1.03.08-.03,1.63c-.03.9-.22,3.47-.46,5.7-.22,2.25-.38,4.1-.35,4.13.03.03.46-.46.98-1.11.52-.65,1.55-1.63,2.28-2.17,1.11-.84,1.55-.98,2.44-.92l1.11.08.08,1.3c.05,1-.14,1.74-.9,3.42-.52,1.17-1.17,2.85-1.44,3.72l-.49,1.6-1.25.08-1.28.08-.08-1.09-.08-1.11-.95,1.49c-.92,1.44-1,1.49-2.04,1.41l-1.09-.05-.16-1.76c-.08-.98-.16-1.57-.19-1.36-.11.87-2.33,4.8-3.61,6.43-.76.95-2.01,2.25-2.77,2.96-1.9,1.68-6.68,3.96-10.37,4.94-3.75,1-5.92,1.98-6.51,2.88-.38.54-.68.71-1.49.71-.57,0-1.17.19-1.36.41-.19.24-.79.41-1.47.41-.87,0-2.17.54-5.92,2.44-3.94,2.01-5.02,2.44-6,2.44-1.49,0-2.09-.22-2.09-.71,0-.24-.3-.38-.76-.38-.87,0-1.41-.43-1.41-1.17,0-.41-.16-.33-.73.41-.43.49-.95,1.11-1.17,1.38-.22.24-.46.87-.54,1.33-.19,1.17-2.09,2.66-3.42,2.66-.87,0-.92-.05-.92-.98h0Zm31.46-13.95c.14,0,.16-.33.08-.71l-.14-.73-.49.65c-.62.81-.65,1.17-.08.95.24-.08.52-.16.62-.16h0Z"/>
    <path id="path16" class="cls-1" d="m444.62,157.68c0-2.09,2.44-5.43,5.81-7.9,2.8-2.09,3.96-2.66,5.32-2.66,1.06,0,1.09.03,1.09.92,0,.76-.19,1.03-1.03,1.6-2.66,1.74-6.32,5.24-8.55,8.17-.62.79-.92.98-1.68.98-.92,0-.95-.03-.95-1.11h0Z"/>
    <path id="path17" class="cls-1" d="m461.2,148.29c0-.73.35-2.52.73-4.02.73-2.69.73-2.71,1.6-2.8.49-.05,1.09.03,1.38.19.43.22.68-.05,1.87-2.09.76-1.3,1.85-2.93,2.42-3.64.92-1.14,1.19-1.3,2.09-1.3h1v2.82l1.47-1.44c1.25-1.25,1.57-1.41,2.36-1.33.81.08.92.19,1,.98.05.46.16.87.22.87.08,0,.84-.54,1.68-1.19,2.66-2.04,3.61-2.39,6.05-2.28l2.14.08.03-1.49c0-.81.16-1.93.35-2.44.3-.84.46-.95,1.36-1.03,1.74-.14,3.15,1.6,3.15,3.88v1.22h-1.09c-1.22,0-1.3.16-1.41,2.58l-.08,1.36-1.28.08-1.3.08v-1.28c0-.98-.08-1.19-.33-.98-.19.16-.84.35-1.41.46-1.17.24-4.8,2.58-6.68,4.34-2.04,1.9-2.71,2.31-3.83,2.31-.98,0-1.06-.05-1.06-.73l-.03-.76-.54.68c-.3.38-1.06,1.33-1.68,2.12-1.14,1.44-1.17,1.44-2.42,1.33-1.17-.11-1.3-.05-1.57.62-.57,1.36-1.57,2.17-2.69,2.17-.98,0-1.06.05-1.22.95-.19.9-.24.95-1.25.95h-1.09l.03-1.28Z"/>
    <path id="path18" class="cls-1" d="m493.29,131.19c-.35-.87.52-4.34,2.47-10.1,1.11-3.23,2.09-6.13,2.2-6.46.16-.57.35-.62,1.82-.62h1.66l-.19,1.71c-.08.92-.24,3.39-.33,5.48l-.14,3.8,1.3-2.58c1.33-2.61,2.52-4.51,3.61-5.65.46-.49.84-.6,1.57-.54.95.08,1,.14,1.09,1.19.05.87-.08,1.28-.76,2.17-1.22,1.49-2.52,3.96-3.56,6.54-.54,1.44-1.06,2.31-1.36,2.39-.3.11-.52.3-.52.46s-.46.24-1.09.16c-1-.08-1.09-.05-1.09.6,0,1.14-.57,1.68-1.63,1.57l-.95-.08.05-2.58.03-2.58-.9,2.31c-.52,1.28-.98,2.52-1.03,2.8-.19.65-2.04.65-2.28,0h0Z"/>
    <path id="path19" class="cls-1" d="m504.61,127.85c0-.9.38-1.63,2.33-4.53,2.77-4.07,3.69-5.97,4.83-9.99l.87-2.99h2.42l.16,1.63c.11.9.19,2.88.22,4.42l.03,2.77h.95c.9,0,2.04.81,2.04,1.44,0,.14.79-.84,1.74-2.14,2.61-3.58,3.8-4.99,7.08-8.39,3.39-3.5,5.43-4.75,7.82-4.75h1.28v1.03c0,.98-.05,1.06-1.68,1.82-1.98.9-4.7,3.5-8.36,7.95-2.93,3.56-3.01,3.75-1.44,2.8,3.18-1.93,7.14-4.1,8.77-4.78,4.53-1.9,8.17-3.12,9.36-3.12h1.22v1.06c0,.92-.11,1.09-.87,1.41-2.23.87-6.79,2.82-8.63,3.66-1.98.92-2.96,1.47-8.01,4.45-1.98,1.17-2.74,1.47-3.96,1.57-1.3.11-1.6.22-1.85.76-.33.71-.79.76-3.58.41-1-.11-1.79-.08-2.31.16-.43.19-1.19.33-1.66.35h-.9v-4.21l-1.63,2.85c-1.93,3.39-3.94,5.4-5.35,5.43-.87,0-.9-.05-.9-1.09h0Z"/>
    <path id="path20" class="cls-1" d="m186.53,109.77c.08-.92.19-1.06,1.03-1.3.52-.14,2.23-.65,3.8-1.14,6.68-2.09,19.63-5.05,21.69-4.94l1.52.08v2.17l-6.11,1.55c-8.58,2.14-18.27,4.29-20.3,4.48l-1.71.16.08-1.06Z"/>
    <path id="path21" class="cls-1" d="m544.24,108.36c0-1.9.62-2.77,1.98-2.77.49,0,2.01-.6,3.58-1.38,1.66-.84,3.26-1.44,4.02-1.52,1.19-.14,1.28-.19,1.44-1.14.11-.52.22-2.14.22-3.56l.03-2.58,1.28-.08c1.11-.08,1.41.03,1.93.6.35.38.81,1.19,1,1.79.22.68.43.98.57.79.22-.38.79-4.18,1.63-10.8.3-2.47.6-4.59.68-4.7.24-.38,1.93-.24,2.28.19.41.49.27,3.47-.35,7.6-.24,1.49-.49,3.61-.57,4.7l-.16,2.01.98-1.33c2.42-3.2,4.64-4.97,6.32-4.97,1.09,0,1.11.03,1.11.9,0,.49-.14,1.03-.33,1.22-.24.24-.08.33.76.33,1.11,0,2.01.6,2.01,1.36,0,.19.35.05.9-.38.46-.38,1.33-.95,1.87-1.25s1.3-.92,1.68-1.41c2.31-3.07,5.24-9.26,6.54-13.92l.81-2.99h2.44l-.03,1.22c0,.68-.16,2.14-.33,3.26-.16,1.11-.38,3.5-.46,5.29l-.19,3.26,1.6-2.31c.87-1.25,2.17-2.93,2.9-3.75,1.19-1.28,1.47-1.44,2.31-1.36l.98.08v3.37l1.09-1.06c.95-.95,1.28-1.09,2.31-1.09,1.63,0,2.44.84,2.44,2.42s-.9,2.47-2.63,2.47c-1.22,0-1.33.08-2.93,1.76-1.6,1.74-1.66,1.76-3.04,1.76-.95,0-1.49-.14-1.63-.41-.16-.3-.54.14-1.44,1.68-1.41,2.39-2.01,2.85-3.45,2.74-1-.08-1.03-.11-1.09-1.17-.05-.6-.16-1.87-.24-2.82l-.16-1.71-1.66,2.71c-.92,1.49-2.39,3.64-3.26,4.78-1.55,1.98-1.63,2.06-2.71,2.06-.95,0-1.38.22-2.63,1.22-1.25,1.03-1.68,1.22-2.63,1.22s-1.17-.11-1.17-.46c0-.38-.08-.35-.62.14-.41.38-.98.6-1.63.6-.95,0-1-.03-1-.92,0-.52.14-1.28.27-1.71.27-.73.24-.73-.16-.22-.22.3-.73,1.09-1.11,1.76-1.11,1.9-1.41,2.17-2.55,2.17-.76,0-1.06-.14-1.11-.46-.05-.27-.22.08-.33.79-.24,1.57-1.14,2.39-2.63,2.39-.92,0-1.03-.08-1.36-1l-.35-1.03-.27,1.36-.3,1.36-1.82.03c-1.68.05-2.06.19-5.48,2.01-2.04,1.06-3.75,2.04-3.83,2.2-.11.14-.65.24-1.25.24h-1.06v-1.57Z"/>
    <path id="path22" class="cls-1" d="m161.78,106.21v-1.09l6.05-1.66c3.31-.9,8.66-2.2,11.86-2.9,3.2-.68,7.25-1.55,8.96-1.93,10.1-2.2,28.96-5.81,30.7-5.86l2.01-.08v1.06c0,1-.05,1.06-1.22,1.41-3.66,1.11-15.72,3.75-31.35,6.87-9.69,1.95-19.11,3.85-20.9,4.26-1.79.38-3.91.76-4.67.84l-1.44.14v-1.06Z"/>
    <path id="path23" class="cls-1" d="m196.31,90.61l.08-1.17,2.58-.6c1.41-.35,4.34-.98,6.51-1.44,7.41-1.49,14.25-2.93,16.01-3.37,2.85-.68,7.52-1.52,9.53-1.68,2.23-.22,2.69.05,2.69,1.55,0,.87-.11,1.09-.6,1.19-.35.08-4.53.92-9.31,1.9-4.78.95-10.83,2.17-13.44,2.71-6.87,1.41-10.69,2.04-12.54,2.04h-1.6l.08-1.14Z"/>
    <path id="path24" class="cls-1" d="m604.23,83.93c0-1.55,1.19-4.07,2.66-5.54,1.06-1.11,1.41-1.3,2.28-1.3s1.03.08,1.03.57c0,.46.19.38,1.17-.65.65-.65,2.04-1.76,3.07-2.47,1.74-1.14,2.01-1.25,3.56-1.25h1.71v.92c0,.87-.14,1.03-2.36,2.44-1.33.81-3.07,2.12-3.94,2.85-1.22,1.11-1.71,1.38-2.5,1.38-.84,0-.98-.08-.98-.6q-.03-.6-.33-.08c-.16.3-.54.81-.87,1.17-.3.35-.87,1.28-1.25,2.04-.65,1.38-.71,1.41-1.95,1.49l-1.3.08v-1.06Z"/>
    <path id="path25" class="cls-1" d="m236.42,54.64c-1-.68-1.09-.87-1.09-2.74,0-2.17.43-2.85,2.55-3.91,1.44-.73,2.01-.87,4.37-.95,1.6-.08,3.5.03,4.61.24l1.9.35.08,1.3c.08,1.17.03,1.3-.62,1.55-.41.16-.98.27-1.3.27s-1.63.76-2.9,1.66c-1.28.92-2.8,1.9-3.39,2.17-1.38.62-3.34.65-4.21.05Z"/>
    <path id="path26" class="cls-1" d="m319.84,48.15c-.65-.65-.68-.81-.57-2.77.14-2.31.65-3.56,2.2-5.43.57-.68,1.03-1.57,1.14-2.23.16-1.03.22-1.09,1.19-1.09,1.98,0,2.06.22,1.98,4.94-.08,4.86-.52,6.22-2.12,6.89-1.49.62-3.01.49-3.83-.33Z"/>
    <path id="path27" class="cls-1" d="m338.24,35.99c-.62-.73-.92-3.31-.6-4.7.43-1.74.95-2.25,2.23-2.25,1.52,0,1.87.68,1.87,3.47,0,2.14-.27,3.2-.92,3.64-.52.35-2.25.24-2.58-.16Z"/>
    <path id="path28" class="cls-1" d="m320.95,31.35c-.38-.57-.41-1.09-.24-3.04.19-2.31.22-2.39,1.28-3.34.76-.71,1.14-1.36,1.33-2.2.16-.65.46-1.41.71-1.66.6-.65,2.14-.65,2.5,0,.16.33.19,2.17.05,5.08-.22,4.51-.22,4.56-.95,5.21-.6.52-1.03.62-2.47.62-1.57,0-1.79-.08-2.2-.68h0Z"/>
    <path id="path29" class="cls-1" d="m366.04,24.95c-1.85-.9-2.23-.95-2.96-.38-.71.54-2.2.52-2.71-.03-.27-.24-.43-.9-.43-1.57,0-1.14.05-1.19,1.87-2.42,2.39-1.6,4.42-2.2,6.79-2.04,3.07.24,4.64,1.63,4.64,4.07,0,2.96-3.58,4.13-7.19,2.36Zm3.37-2.8c-.05-.05-.46-.16-.92-.27-.6-.14-.71-.11-.41.11.38.24,1.6.41,1.33.16Z"/>
    <path id="path30" class="cls-1" d="m284.14,17.81c-.33-.22-1.66-.41-3.8-.52-3.8-.19-5.24-.57-6-1.57-1.19-1.63-.73-4.56.79-5.13.38-.16,1.87-.27,3.34-.27,3.15,0,4.15.41,6.76,2.71l1.68,1.49-.05,1.76-.08,1.76-1.09.05c-.6.05-1.3-.08-1.55-.3h0Zm-3.47-3.85c0-.24-1.85-.92-2.58-.92-.98,0-.84.49.22.79.98.27,2.36.38,2.36.14Z"/>
  </g>
</svg>