<?xml version="1.0" encoding="utf-8"?>
<!-- Generator: Adobe Illustrator 27.2.0, SVG Export Plug-In . SVG Version: 6.00 Build 0)  -->
<svg version="1.1" id="katman_1" xmlns="http://www.w3.org/2000/svg" xmlns:xlink="http://www.w3.org/1999/xlink" x="0px" y="0px"
	 viewBox="0 0 150 57.7" style="enable-background:new 0 0 150 57.7;" xml:space="preserve">
<style type="text/css">
	.st0{fill:#00194A;}
</style>
<g id="Group_44170" transform="translate(-6.326 -6.355)">
	<path id="Path_43684" class="st0" d="M48.5,34.9l12.9-8.5L46,26.6l4.9-14.6l-12.5,9.2L33.8,6.4l-4.5,14.9l-12.5-9.3l4.9,14.7
		L6.3,26.4l12.6,8.8l-12.5,9l15.5-0.3l-5,14.6l12.5-9.5l4.3,15l4.7-14.9l12.3,9.5l-5.3-14.8l15.8,0.4L48.5,34.9z M55.5,28.3L47,33.8
		l-2.8-2.1l1.1-3.3L55.5,28.3z M47.6,16.3l-3.4,10.3l-4.2,0l-1.1-3.7L47.6,16.3z M33.8,12.5l3,9.7l-3,2.2l-2.9-2.1L33.8,12.5z
		 M20.4,16.8l8.4,6.2l-1.1,3.7l-4.1-0.1L20.4,16.8z M12.5,28.4h9.9l1.2,3.5l-3,2.2L12.5,28.4z M12,42.4l8.4-6.1l3.3,2.3l-1.2,3.5
		L12,42.4z M20.5,53.6l3.4-9.7l4-0.1l1,3.4L20.5,53.6z M33.9,57.8L31,47.9l2.9-2.2l2.8,2.2L33.9,57.8z M37.4,46L34,43.4L30.5,46
		l-1.2-4.1l-4.7,0.1l1.5-4.1l-4-2.8l3.5-2.5l-1.4-4.2H29l1.3-4.3l3.5,2.6l3.5-2.6l1.3,4.4l4.9-0.1l-1.3,4l3.2,2.4l-4,2.6l1.4,4.2
		l-4.2-0.2L37.4,46z M46.6,53L39,47.2l1.1-3.5l3.4,0.1L46.6,53z M44.7,41.8l-1.3-3.6l3.5-2.3l8.7,6.5L44.7,41.8z"/>
	<g id="Group_44168" transform="translate(66.398 17.56)">
		<path id="Path_43685" class="st0" d="M24.7,0l-7.4,11.1L10,0H0l13.2,19.8l0,0v14.6h8.3V19.8l0,0L30,7.1h9.2v27.3h8.3V7.1h9.7V0
			H24.7z"/>
		<path id="Path_43686" class="st0" d="M81.6,0v7.1h6.2l-6.2,6.2v7.5c0,0.9-0.1,1.8-0.3,2.7c-0.2,0.8-0.6,1.6-1.1,2.3
			c-0.5,0.7-1.2,1.2-2,1.6c-1.9,0.8-4,0.8-6,0c-0.8-0.4-1.5-0.9-2-1.6c-0.5-0.7-0.9-1.4-1.1-2.3c-0.2-0.9-0.4-1.8-0.4-2.7V0h-8.2
			v7.1h6.1l-6.1,6.1v8.2c0,1.9,0.3,3.9,1,5.7c0.6,1.6,1.6,3.1,2.9,4.4c1.3,1.3,2.9,2.2,4.6,2.8c3.9,1.4,8.2,1.4,12.2,0
			c1.7-0.6,3.3-1.6,4.7-2.8c1.3-1.2,2.3-2.7,3-4.4c0.7-1.8,1.1-3.7,1-5.7V0H81.6z"/>
	</g>
</g>
</svg>
